<mxfile host="app.diagrams.net" agent="Mozilla/5.0 (X11; Linux x86_64; rv:132.0) Gecko/20100101 Firefox/132.0" version="24.8.4">
  <diagram id="C5RBs43oDa-KdzZeNtuy" name="Page-1">
    <mxGraphModel dx="3899" dy="738" grid="1" gridSize="10" guides="1" tooltips="1" connect="1" arrows="1" fold="1" page="1" pageScale="1" pageWidth="827" pageHeight="1169" math="0" shadow="0">
      <root>
        <mxCell id="WIyWlLk6GJQsqaUBKTNV-0" />
        <mxCell id="WIyWlLk6GJQsqaUBKTNV-1" parent="WIyWlLk6GJQsqaUBKTNV-0" />
        <mxCell id="zkfFHV4jXpPFQw0GAbJ--0" value="Person &lt;&lt;Abstract&gt;&gt;" style="swimlane;fontStyle=0;align=center;verticalAlign=top;childLayout=stackLayout;horizontal=1;startSize=26;horizontalStack=0;resizeParent=1;resizeLast=0;collapsible=1;marginBottom=0;rounded=0;shadow=0;strokeWidth=1;" parent="WIyWlLk6GJQsqaUBKTNV-1" vertex="1">
          <mxGeometry x="-3" y="10" width="230" height="190" as="geometry">
            <mxRectangle x="230" y="140" width="160" height="26" as="alternateBounds" />
          </mxGeometry>
        </mxCell>
        <mxCell id="zkfFHV4jXpPFQw0GAbJ--1" value="- firstName: String" style="text;align=left;verticalAlign=top;spacingLeft=4;spacingRight=4;overflow=hidden;rotatable=0;points=[[0,0.5],[1,0.5]];portConstraint=eastwest;" parent="zkfFHV4jXpPFQw0GAbJ--0" vertex="1">
          <mxGeometry y="26" width="230" height="26" as="geometry" />
        </mxCell>
        <mxCell id="zkfFHV4jXpPFQw0GAbJ--2" value="- lastName: String" style="text;align=left;verticalAlign=top;spacingLeft=4;spacingRight=4;overflow=hidden;rotatable=0;points=[[0,0.5],[1,0.5]];portConstraint=eastwest;rounded=0;shadow=0;html=0;" parent="zkfFHV4jXpPFQw0GAbJ--0" vertex="1">
          <mxGeometry y="52" width="230" height="26" as="geometry" />
        </mxCell>
        <mxCell id="XoDTWIKJpNxpfKzpVEM2-2" value="&amp;nbsp;- email: String" style="text;html=1;align=left;verticalAlign=middle;whiteSpace=wrap;rounded=0;" parent="zkfFHV4jXpPFQw0GAbJ--0" vertex="1">
          <mxGeometry y="78" width="230" height="30" as="geometry" />
        </mxCell>
        <mxCell id="XoDTWIKJpNxpfKzpVEM2-3" value="&amp;nbsp;- password: String" style="text;html=1;align=left;verticalAlign=middle;whiteSpace=wrap;rounded=0;" parent="zkfFHV4jXpPFQw0GAbJ--0" vertex="1">
          <mxGeometry y="108" width="230" height="22" as="geometry" />
        </mxCell>
        <mxCell id="zkfFHV4jXpPFQw0GAbJ--3" value="- dob: Date" style="text;align=left;verticalAlign=top;spacingLeft=4;spacingRight=4;overflow=hidden;rotatable=0;points=[[0,0.5],[1,0.5]];portConstraint=eastwest;rounded=0;shadow=0;html=0;" parent="zkfFHV4jXpPFQw0GAbJ--0" vertex="1">
          <mxGeometry y="130" width="230" height="30" as="geometry" />
        </mxCell>
        <mxCell id="XoDTWIKJpNxpfKzpVEM2-24" value="&amp;nbsp;- phoneNumber: String" style="text;html=1;align=left;verticalAlign=middle;whiteSpace=wrap;rounded=0;" parent="zkfFHV4jXpPFQw0GAbJ--0" vertex="1">
          <mxGeometry y="160" width="230" height="30" as="geometry" />
        </mxCell>
        <mxCell id="zkfFHV4jXpPFQw0GAbJ--6" value="Client&#xa;" style="swimlane;fontStyle=0;align=center;verticalAlign=top;childLayout=stackLayout;horizontal=1;startSize=26;horizontalStack=0;resizeParent=1;resizeLast=0;collapsible=1;marginBottom=0;rounded=0;shadow=0;strokeWidth=1;" parent="WIyWlLk6GJQsqaUBKTNV-1" vertex="1">
          <mxGeometry x="-77" y="380" width="160" height="82" as="geometry">
            <mxRectangle x="130" y="380" width="160" height="26" as="alternateBounds" />
          </mxGeometry>
        </mxCell>
        <mxCell id="zkfFHV4jXpPFQw0GAbJ--7" value="- homeAddress: Address" style="text;align=left;verticalAlign=top;spacingLeft=4;spacingRight=4;overflow=hidden;rotatable=0;points=[[0,0.5],[1,0.5]];portConstraint=eastwest;" parent="zkfFHV4jXpPFQw0GAbJ--6" vertex="1">
          <mxGeometry y="26" width="160" height="26" as="geometry" />
        </mxCell>
        <mxCell id="XoDTWIKJpNxpfKzpVEM2-16" value="&amp;nbsp;- clientID: int" style="text;html=1;align=left;verticalAlign=middle;whiteSpace=wrap;rounded=0;" parent="zkfFHV4jXpPFQw0GAbJ--6" vertex="1">
          <mxGeometry y="52" width="160" height="30" as="geometry" />
        </mxCell>
        <mxCell id="zkfFHV4jXpPFQw0GAbJ--12" value="" style="endArrow=block;endSize=10;endFill=0;shadow=0;strokeWidth=1;rounded=0;curved=0;edgeStyle=elbowEdgeStyle;elbow=vertical;" parent="WIyWlLk6GJQsqaUBKTNV-1" source="zkfFHV4jXpPFQw0GAbJ--6" target="zkfFHV4jXpPFQw0GAbJ--0" edge="1">
          <mxGeometry width="160" relative="1" as="geometry">
            <mxPoint x="13" y="93" as="sourcePoint" />
            <mxPoint x="13" y="93" as="targetPoint" />
          </mxGeometry>
        </mxCell>
        <mxCell id="zkfFHV4jXpPFQw0GAbJ--13" value="Employee" style="swimlane;fontStyle=0;align=center;verticalAlign=top;childLayout=stackLayout;horizontal=1;startSize=26;horizontalStack=0;resizeParent=1;resizeLast=0;collapsible=1;marginBottom=0;rounded=0;shadow=0;strokeWidth=1;" parent="WIyWlLk6GJQsqaUBKTNV-1" vertex="1">
          <mxGeometry x="146" y="380" width="160" height="52" as="geometry">
            <mxRectangle x="340" y="380" width="170" height="26" as="alternateBounds" />
          </mxGeometry>
        </mxCell>
        <mxCell id="zkfFHV4jXpPFQw0GAbJ--14" value="- employeeId: int" style="text;align=left;verticalAlign=top;spacingLeft=4;spacingRight=4;overflow=hidden;rotatable=0;points=[[0,0.5],[1,0.5]];portConstraint=eastwest;" parent="zkfFHV4jXpPFQw0GAbJ--13" vertex="1">
          <mxGeometry y="26" width="160" height="26" as="geometry" />
        </mxCell>
        <mxCell id="zkfFHV4jXpPFQw0GAbJ--16" value="" style="endArrow=block;endSize=10;endFill=0;shadow=0;strokeWidth=1;rounded=0;curved=0;edgeStyle=elbowEdgeStyle;elbow=vertical;" parent="WIyWlLk6GJQsqaUBKTNV-1" source="zkfFHV4jXpPFQw0GAbJ--13" target="zkfFHV4jXpPFQw0GAbJ--0" edge="1">
          <mxGeometry width="160" relative="1" as="geometry">
            <mxPoint x="23" y="263" as="sourcePoint" />
            <mxPoint x="123" y="161" as="targetPoint" />
          </mxGeometry>
        </mxCell>
        <mxCell id="zkfFHV4jXpPFQw0GAbJ--17" value="Address" style="swimlane;fontStyle=0;align=center;verticalAlign=top;childLayout=stackLayout;horizontal=1;startSize=26;horizontalStack=0;resizeParent=1;resizeLast=0;collapsible=1;marginBottom=0;rounded=0;shadow=0;strokeWidth=1;" parent="WIyWlLk6GJQsqaUBKTNV-1" vertex="1">
          <mxGeometry x="-595" y="330" width="280" height="190" as="geometry">
            <mxRectangle x="550" y="140" width="160" height="26" as="alternateBounds" />
          </mxGeometry>
        </mxCell>
        <mxCell id="zkfFHV4jXpPFQw0GAbJ--18" value="- street: String : Constant" style="text;align=left;verticalAlign=top;spacingLeft=4;spacingRight=4;overflow=hidden;rotatable=0;points=[[0,0.5],[1,0.5]];portConstraint=eastwest;" parent="zkfFHV4jXpPFQw0GAbJ--17" vertex="1">
          <mxGeometry y="26" width="280" height="26" as="geometry" />
        </mxCell>
        <mxCell id="zkfFHV4jXpPFQw0GAbJ--19" value="- city: City : Constant" style="text;align=left;verticalAlign=top;spacingLeft=4;spacingRight=4;overflow=hidden;rotatable=0;points=[[0,0.5],[1,0.5]];portConstraint=eastwest;rounded=0;shadow=0;html=0;" parent="zkfFHV4jXpPFQw0GAbJ--17" vertex="1">
          <mxGeometry y="52" width="280" height="26" as="geometry" />
        </mxCell>
        <mxCell id="zkfFHV4jXpPFQw0GAbJ--21" value="- postalCode: String : Constant" style="text;align=left;verticalAlign=top;spacingLeft=4;spacingRight=4;overflow=hidden;rotatable=0;points=[[0,0.5],[1,0.5]];portConstraint=eastwest;rounded=0;shadow=0;html=0;" parent="zkfFHV4jXpPFQw0GAbJ--17" vertex="1">
          <mxGeometry y="78" width="280" height="26" as="geometry" />
        </mxCell>
        <mxCell id="zkfFHV4jXpPFQw0GAbJ--22" value="- streetNo: String : Constant" style="text;align=left;verticalAlign=top;spacingLeft=4;spacingRight=4;overflow=hidden;rotatable=0;points=[[0,0.5],[1,0.5]];portConstraint=eastwest;rounded=0;shadow=0;html=0;" parent="zkfFHV4jXpPFQw0GAbJ--17" vertex="1">
          <mxGeometry y="104" width="280" height="26" as="geometry" />
        </mxCell>
        <mxCell id="zkfFHV4jXpPFQw0GAbJ--23" value="" style="line;html=1;strokeWidth=1;align=left;verticalAlign=middle;spacingTop=-1;spacingLeft=3;spacingRight=3;rotatable=0;labelPosition=right;points=[];portConstraint=eastwest;" parent="zkfFHV4jXpPFQw0GAbJ--17" vertex="1">
          <mxGeometry y="130" width="280" height="8" as="geometry" />
        </mxCell>
        <mxCell id="zkfFHV4jXpPFQw0GAbJ--24" value="+ mapAddressToY(): int" style="text;align=left;verticalAlign=top;spacingLeft=4;spacingRight=4;overflow=hidden;rotatable=0;points=[[0,0.5],[1,0.5]];portConstraint=eastwest;" parent="zkfFHV4jXpPFQw0GAbJ--17" vertex="1">
          <mxGeometry y="138" width="280" height="26" as="geometry" />
        </mxCell>
        <mxCell id="WuP1_2tCb798RYxcEVrB-0" value="+ mapAddressToX(): int" style="text;align=left;verticalAlign=top;spacingLeft=4;spacingRight=4;overflow=hidden;rotatable=0;points=[[0,0.5],[1,0.5]];portConstraint=eastwest;" parent="zkfFHV4jXpPFQw0GAbJ--17" vertex="1">
          <mxGeometry y="164" width="280" height="26" as="geometry" />
        </mxCell>
        <mxCell id="zkfFHV4jXpPFQw0GAbJ--26" value="" style="endArrow=none;shadow=0;strokeWidth=1;rounded=0;curved=0;endFill=0;edgeStyle=elbowEdgeStyle;elbow=vertical;startSize=20;endSize=20;startArrow=diamondThin;startFill=1;" parent="WIyWlLk6GJQsqaUBKTNV-1" target="zkfFHV4jXpPFQw0GAbJ--21" edge="1">
          <mxGeometry x="0.5" y="41" relative="1" as="geometry">
            <mxPoint x="-77" y="430" as="sourcePoint" />
            <mxPoint x="-257" y="430" as="targetPoint" />
            <mxPoint x="-40" y="32" as="offset" />
          </mxGeometry>
        </mxCell>
        <mxCell id="zkfFHV4jXpPFQw0GAbJ--27" value="[1, n]" style="resizable=0;align=left;verticalAlign=bottom;labelBackgroundColor=none;fontSize=12;" parent="zkfFHV4jXpPFQw0GAbJ--26" connectable="0" vertex="1">
          <mxGeometry x="-1" relative="1" as="geometry">
            <mxPoint x="-53" y="-10" as="offset" />
          </mxGeometry>
        </mxCell>
        <mxCell id="zkfFHV4jXpPFQw0GAbJ--28" value="[1]" style="resizable=0;align=right;verticalAlign=bottom;labelBackgroundColor=none;fontSize=12;" parent="zkfFHV4jXpPFQw0GAbJ--26" connectable="0" vertex="1">
          <mxGeometry x="1" relative="1" as="geometry">
            <mxPoint x="25" y="30" as="offset" />
          </mxGeometry>
        </mxCell>
        <mxCell id="zkfFHV4jXpPFQw0GAbJ--29" value="lives at" style="text;html=1;resizable=0;points=[];;align=center;verticalAlign=middle;labelBackgroundColor=none;rounded=0;shadow=0;strokeWidth=1;fontSize=12;" parent="zkfFHV4jXpPFQw0GAbJ--26" vertex="1" connectable="0">
          <mxGeometry x="0.5" y="49" relative="1" as="geometry">
            <mxPoint x="-34" y="-69" as="offset" />
          </mxGeometry>
        </mxCell>
        <mxCell id="WuP1_2tCb798RYxcEVrB-6" value="is the home of" style="edgeLabel;html=1;align=center;verticalAlign=middle;resizable=0;points=[];" parent="zkfFHV4jXpPFQw0GAbJ--26" vertex="1" connectable="0">
          <mxGeometry x="0.1222" y="-2" relative="1" as="geometry">
            <mxPoint x="72" y="12" as="offset" />
          </mxGeometry>
        </mxCell>
        <mxCell id="XoDTWIKJpNxpfKzpVEM2-7" value="&lt;span style=&quot;font-weight: normal;&quot;&gt;Payment&lt;/span&gt;" style="swimlane;fontStyle=1;align=center;verticalAlign=top;childLayout=stackLayout;horizontal=1;startSize=26;horizontalStack=0;resizeParent=1;resizeParentMax=0;resizeLast=0;collapsible=1;marginBottom=0;whiteSpace=wrap;html=1;" parent="WIyWlLk6GJQsqaUBKTNV-1" vertex="1">
          <mxGeometry x="-161.5" y="627" width="329" height="160" as="geometry" />
        </mxCell>
        <mxCell id="XoDTWIKJpNxpfKzpVEM2-8" value="- paymentAmount: double : Constant" style="text;strokeColor=none;fillColor=none;align=left;verticalAlign=top;spacingLeft=4;spacingRight=4;overflow=hidden;rotatable=0;points=[[0,0.5],[1,0.5]];portConstraint=eastwest;whiteSpace=wrap;html=1;" parent="XoDTWIKJpNxpfKzpVEM2-7" vertex="1">
          <mxGeometry y="26" width="329" height="26" as="geometry" />
        </mxCell>
        <mxCell id="WuP1_2tCb798RYxcEVrB-2" value="- paymentMethod: String : Constant" style="text;strokeColor=none;fillColor=none;align=left;verticalAlign=top;spacingLeft=4;spacingRight=4;overflow=hidden;rotatable=0;points=[[0,0.5],[1,0.5]];portConstraint=eastwest;whiteSpace=wrap;html=1;" parent="XoDTWIKJpNxpfKzpVEM2-7" vertex="1">
          <mxGeometry y="52" width="329" height="26" as="geometry" />
        </mxCell>
        <mxCell id="WuP1_2tCb798RYxcEVrB-3" value="- client: Client : Constant" style="text;strokeColor=none;fillColor=none;align=left;verticalAlign=top;spacingLeft=4;spacingRight=4;overflow=hidden;rotatable=0;points=[[0,0.5],[1,0.5]];portConstraint=eastwest;whiteSpace=wrap;html=1;" parent="XoDTWIKJpNxpfKzpVEM2-7" vertex="1">
          <mxGeometry y="78" width="329" height="26" as="geometry" />
        </mxCell>
        <mxCell id="XoDTWIKJpNxpfKzpVEM2-9" value="" style="line;strokeWidth=1;fillColor=none;align=left;verticalAlign=middle;spacingTop=-1;spacingLeft=3;spacingRight=3;rotatable=0;labelPosition=right;points=[];portConstraint=eastwest;strokeColor=inherit;" parent="XoDTWIKJpNxpfKzpVEM2-7" vertex="1">
          <mxGeometry y="104" width="329" height="8" as="geometry" />
        </mxCell>
        <mxCell id="XoDTWIKJpNxpfKzpVEM2-10" value="+ Payment(amount: double, method: String, client: Client) : Payment" style="text;strokeColor=none;fillColor=none;align=left;verticalAlign=top;spacingLeft=4;spacingRight=4;overflow=hidden;rotatable=0;points=[[0,0.5],[1,0.5]];portConstraint=eastwest;whiteSpace=wrap;html=1;" parent="XoDTWIKJpNxpfKzpVEM2-7" vertex="1">
          <mxGeometry y="112" width="329" height="48" as="geometry" />
        </mxCell>
        <mxCell id="XoDTWIKJpNxpfKzpVEM2-14" value="" style="endArrow=classic;html=1;rounded=0;entryX=0.5;entryY=1;entryDx=0;entryDy=0;endSize=15;" parent="WIyWlLk6GJQsqaUBKTNV-1" source="XoDTWIKJpNxpfKzpVEM2-7" target="zkfFHV4jXpPFQw0GAbJ--6" edge="1">
          <mxGeometry width="50" height="50" relative="1" as="geometry">
            <mxPoint x="-7" y="630" as="sourcePoint" />
            <mxPoint x="2.0780141843968067" y="502" as="targetPoint" />
          </mxGeometry>
        </mxCell>
        <mxCell id="WuP1_2tCb798RYxcEVrB-4" value="[0, n]" style="edgeLabel;html=1;align=center;verticalAlign=middle;resizable=0;points=[];" parent="XoDTWIKJpNxpfKzpVEM2-14" vertex="1" connectable="0">
          <mxGeometry x="-0.7436" y="-1" relative="1" as="geometry">
            <mxPoint x="19" y="-3" as="offset" />
          </mxGeometry>
        </mxCell>
        <mxCell id="WuP1_2tCb798RYxcEVrB-5" value="[1]" style="edgeLabel;html=1;align=center;verticalAlign=middle;resizable=0;points=[];" parent="XoDTWIKJpNxpfKzpVEM2-14" vertex="1" connectable="0">
          <mxGeometry x="0.6159" y="-1" relative="1" as="geometry">
            <mxPoint x="-21" y="-15" as="offset" />
          </mxGeometry>
        </mxCell>
        <mxCell id="WuP1_2tCb798RYxcEVrB-7" value="Pays for orders using" style="edgeLabel;html=1;align=center;verticalAlign=middle;resizable=0;points=[];" parent="XoDTWIKJpNxpfKzpVEM2-14" vertex="1" connectable="0">
          <mxGeometry x="0.0643" relative="1" as="geometry">
            <mxPoint x="-60" y="49" as="offset" />
          </mxGeometry>
        </mxCell>
        <mxCell id="WuP1_2tCb798RYxcEVrB-8" value="Made by" style="edgeLabel;html=1;align=center;verticalAlign=middle;resizable=0;points=[];" parent="XoDTWIKJpNxpfKzpVEM2-14" vertex="1" connectable="0">
          <mxGeometry x="0.358" relative="1" as="geometry">
            <mxPoint x="40" y="-32" as="offset" />
          </mxGeometry>
        </mxCell>
        <mxCell id="XoDTWIKJpNxpfKzpVEM2-19" value="&lt;span style=&quot;font-weight: normal;&quot;&gt;Restaurant&lt;/span&gt;" style="swimlane;fontStyle=1;align=center;verticalAlign=top;childLayout=stackLayout;horizontal=1;startSize=26;horizontalStack=0;resizeParent=1;resizeParentMax=0;resizeLast=0;collapsible=1;marginBottom=0;whiteSpace=wrap;html=1;" parent="WIyWlLk6GJQsqaUBKTNV-1" vertex="1">
          <mxGeometry x="-600" y="650" width="290" height="200" as="geometry" />
        </mxCell>
        <mxCell id="XoDTWIKJpNxpfKzpVEM2-23" value="- location: Address" style="text;html=1;align=left;verticalAlign=middle;whiteSpace=wrap;rounded=0;" parent="XoDTWIKJpNxpfKzpVEM2-19" vertex="1">
          <mxGeometry y="26" width="290" height="30" as="geometry" />
        </mxCell>
        <mxCell id="XoDTWIKJpNxpfKzpVEM2-20" value="- name: String&lt;div&gt;&lt;br&gt;&lt;/div&gt;" style="text;strokeColor=none;fillColor=none;align=left;verticalAlign=top;spacingLeft=4;spacingRight=4;overflow=hidden;rotatable=0;points=[[0,0.5],[1,0.5]];portConstraint=eastwest;whiteSpace=wrap;html=1;" parent="XoDTWIKJpNxpfKzpVEM2-19" vertex="1">
          <mxGeometry y="56" width="290" height="26" as="geometry" />
        </mxCell>
        <mxCell id="WuP1_2tCb798RYxcEVrB-16" value="- balance : double" style="text;strokeColor=none;fillColor=none;align=left;verticalAlign=top;spacingLeft=4;spacingRight=4;overflow=hidden;rotatable=0;points=[[0,0.5],[1,0.5]];portConstraint=eastwest;whiteSpace=wrap;html=1;" parent="XoDTWIKJpNxpfKzpVEM2-19" vertex="1">
          <mxGeometry y="82" width="290" height="26" as="geometry" />
        </mxCell>
        <mxCell id="WuP1_2tCb798RYxcEVrB-1" value="- orderQueue: Queue&amp;lt;Order&amp;gt;" style="text;strokeColor=none;fillColor=none;align=left;verticalAlign=top;spacingLeft=4;spacingRight=4;overflow=hidden;rotatable=0;points=[[0,0.5],[1,0.5]];portConstraint=eastwest;whiteSpace=wrap;html=1;" parent="XoDTWIKJpNxpfKzpVEM2-19" vertex="1">
          <mxGeometry y="108" width="290" height="26" as="geometry" />
        </mxCell>
        <mxCell id="XoDTWIKJpNxpfKzpVEM2-21" value="" style="line;strokeWidth=1;fillColor=none;align=left;verticalAlign=middle;spacingTop=-1;spacingLeft=3;spacingRight=3;rotatable=0;labelPosition=right;points=[];portConstraint=eastwest;strokeColor=inherit;" parent="XoDTWIKJpNxpfKzpVEM2-19" vertex="1">
          <mxGeometry y="134" width="290" height="8" as="geometry" />
        </mxCell>
        <mxCell id="XoDTWIKJpNxpfKzpVEM2-22" value="+ addOrder(category: String, food: String): Order" style="text;strokeColor=none;fillColor=none;align=left;verticalAlign=top;spacingLeft=4;spacingRight=4;overflow=hidden;rotatable=0;points=[[0,0.5],[1,0.5]];portConstraint=eastwest;whiteSpace=wrap;html=1;" parent="XoDTWIKJpNxpfKzpVEM2-19" vertex="1">
          <mxGeometry y="142" width="290" height="28" as="geometry" />
        </mxCell>
        <mxCell id="WuP1_2tCb798RYxcEVrB-17" value="+ addPayment(payment: Payment): void" style="text;strokeColor=none;fillColor=none;align=left;verticalAlign=top;spacingLeft=4;spacingRight=4;overflow=hidden;rotatable=0;points=[[0,0.5],[1,0.5]];portConstraint=eastwest;whiteSpace=wrap;html=1;" parent="XoDTWIKJpNxpfKzpVEM2-19" vertex="1">
          <mxGeometry y="170" width="290" height="30" as="geometry" />
        </mxCell>
        <mxCell id="XoDTWIKJpNxpfKzpVEM2-28" value="" style="endArrow=none;shadow=0;strokeWidth=1;rounded=0;curved=0;endFill=0;edgeStyle=elbowEdgeStyle;elbow=vertical;exitX=0.5;exitY=0;exitDx=0;exitDy=0;entryX=0.5;entryY=1;entryDx=0;entryDy=0;endSize=6;startArrow=diamondThin;startFill=1;targetPerimeterSpacing=0;startSize=20;" parent="WIyWlLk6GJQsqaUBKTNV-1" source="XoDTWIKJpNxpfKzpVEM2-19" target="zkfFHV4jXpPFQw0GAbJ--17" edge="1">
          <mxGeometry x="0.5" y="41" relative="1" as="geometry">
            <mxPoint x="-237" y="610.41" as="sourcePoint" />
            <mxPoint x="-417" y="610.41" as="targetPoint" />
            <mxPoint x="-40" y="32" as="offset" />
          </mxGeometry>
        </mxCell>
        <mxCell id="XoDTWIKJpNxpfKzpVEM2-29" value="[1]" style="resizable=0;align=left;verticalAlign=bottom;labelBackgroundColor=none;fontSize=12;" parent="XoDTWIKJpNxpfKzpVEM2-28" connectable="0" vertex="1">
          <mxGeometry x="-1" relative="1" as="geometry">
            <mxPoint x="15" y="-10" as="offset" />
          </mxGeometry>
        </mxCell>
        <mxCell id="XoDTWIKJpNxpfKzpVEM2-30" value="[1]" style="resizable=0;align=right;verticalAlign=bottom;labelBackgroundColor=none;fontSize=12;" parent="XoDTWIKJpNxpfKzpVEM2-28" connectable="0" vertex="1">
          <mxGeometry x="1" relative="1" as="geometry">
            <mxPoint x="-15" y="30" as="offset" />
          </mxGeometry>
        </mxCell>
        <mxCell id="XoDTWIKJpNxpfKzpVEM2-31" value="located at" style="text;html=1;resizable=0;points=[];;align=center;verticalAlign=middle;labelBackgroundColor=none;rounded=0;shadow=0;strokeWidth=1;fontSize=12;" parent="XoDTWIKJpNxpfKzpVEM2-28" connectable="0" vertex="1">
          <mxGeometry x="0.5" y="49" relative="1" as="geometry">
            <mxPoint x="84" y="-12" as="offset" />
          </mxGeometry>
        </mxCell>
        <mxCell id="WuP1_2tCb798RYxcEVrB-9" value="is the location of" style="edgeLabel;html=1;align=center;verticalAlign=middle;resizable=0;points=[];" parent="XoDTWIKJpNxpfKzpVEM2-28" vertex="1" connectable="0">
          <mxGeometry x="-0.4435" relative="1" as="geometry">
            <mxPoint x="-65" y="17" as="offset" />
          </mxGeometry>
        </mxCell>
        <mxCell id="XoDTWIKJpNxpfKzpVEM2-32" value="&lt;span style=&quot;font-weight: normal;&quot;&gt;BurgerFactory&lt;/span&gt;" style="swimlane;fontStyle=1;align=center;verticalAlign=top;childLayout=stackLayout;horizontal=1;startSize=26;horizontalStack=0;resizeParent=1;resizeParentMax=0;resizeLast=0;collapsible=1;marginBottom=0;whiteSpace=wrap;html=1;" parent="WIyWlLk6GJQsqaUBKTNV-1" vertex="1">
          <mxGeometry x="-1360" y="360" width="140" height="56" as="geometry" />
        </mxCell>
        <mxCell id="XoDTWIKJpNxpfKzpVEM2-281" value="&lt;span style=&quot;text-align: left;&quot;&gt;+createBurger(request: String): Burger&lt;/span&gt;" style="text;html=1;align=center;verticalAlign=middle;whiteSpace=wrap;rounded=0;" parent="XoDTWIKJpNxpfKzpVEM2-32" vertex="1">
          <mxGeometry y="26" width="140" height="30" as="geometry" />
        </mxCell>
        <mxCell id="XoDTWIKJpNxpfKzpVEM2-47" value="&lt;span style=&quot;font-weight: normal;&quot;&gt;BigFatty&lt;/span&gt;" style="swimlane;fontStyle=1;align=center;verticalAlign=top;childLayout=stackLayout;horizontal=1;startSize=26;horizontalStack=0;resizeParent=1;resizeParentMax=0;resizeLast=0;collapsible=1;marginBottom=0;whiteSpace=wrap;html=1;" parent="WIyWlLk6GJQsqaUBKTNV-1" vertex="1">
          <mxGeometry x="-950" y="970" width="160" height="56" as="geometry" />
        </mxCell>
        <mxCell id="XoDTWIKJpNxpfKzpVEM2-277" value="&lt;span style=&quot;text-align: left;&quot;&gt;+ prepare(): Food&lt;/span&gt;" style="text;html=1;align=center;verticalAlign=middle;whiteSpace=wrap;rounded=0;" parent="XoDTWIKJpNxpfKzpVEM2-47" vertex="1">
          <mxGeometry y="26" width="160" height="30" as="geometry" />
        </mxCell>
        <mxCell id="XoDTWIKJpNxpfKzpVEM2-51" value="&lt;span style=&quot;font-weight: normal;&quot;&gt;GreenBush&lt;/span&gt;" style="swimlane;fontStyle=1;align=center;verticalAlign=top;childLayout=stackLayout;horizontal=1;startSize=26;horizontalStack=0;resizeParent=1;resizeParentMax=0;resizeLast=0;collapsible=1;marginBottom=0;whiteSpace=wrap;html=1;" parent="WIyWlLk6GJQsqaUBKTNV-1" vertex="1">
          <mxGeometry x="-750" y="970" width="160" height="56" as="geometry" />
        </mxCell>
        <mxCell id="XoDTWIKJpNxpfKzpVEM2-279" value="&lt;span style=&quot;text-align: left;&quot;&gt;+ prepare(): Food&lt;/span&gt;" style="text;html=1;align=center;verticalAlign=middle;whiteSpace=wrap;rounded=0;" parent="XoDTWIKJpNxpfKzpVEM2-51" vertex="1">
          <mxGeometry y="26" width="160" height="30" as="geometry" />
        </mxCell>
        <mxCell id="XoDTWIKJpNxpfKzpVEM2-55" value="&lt;span style=&quot;font-weight: normal;&quot;&gt;SkinnyPity&lt;/span&gt;" style="swimlane;fontStyle=1;align=center;verticalAlign=top;childLayout=stackLayout;horizontal=1;startSize=26;horizontalStack=0;resizeParent=1;resizeParentMax=0;resizeLast=0;collapsible=1;marginBottom=0;whiteSpace=wrap;html=1;" parent="WIyWlLk6GJQsqaUBKTNV-1" vertex="1">
          <mxGeometry x="-850" y="1039.25" width="160" height="56" as="geometry" />
        </mxCell>
        <mxCell id="XoDTWIKJpNxpfKzpVEM2-278" value="&lt;span style=&quot;text-align: left;&quot;&gt;+ prepare(): Food&lt;/span&gt;" style="text;html=1;align=center;verticalAlign=middle;whiteSpace=wrap;rounded=0;" parent="XoDTWIKJpNxpfKzpVEM2-55" vertex="1">
          <mxGeometry y="26" width="160" height="30" as="geometry" />
        </mxCell>
        <mxCell id="XoDTWIKJpNxpfKzpVEM2-91" value="&lt;span style=&quot;font-weight: normal;&quot;&gt;PizzaFactory&lt;/span&gt;" style="swimlane;fontStyle=1;align=center;verticalAlign=top;childLayout=stackLayout;horizontal=1;startSize=26;horizontalStack=0;resizeParent=1;resizeParentMax=0;resizeLast=0;collapsible=1;marginBottom=0;whiteSpace=wrap;html=1;" parent="WIyWlLk6GJQsqaUBKTNV-1" vertex="1">
          <mxGeometry x="-1500" y="360" width="130" height="72" as="geometry" />
        </mxCell>
        <mxCell id="XoDTWIKJpNxpfKzpVEM2-93" value="+createPizza(request: String): Pizza" style="text;strokeColor=none;fillColor=none;align=left;verticalAlign=top;spacingLeft=4;spacingRight=4;overflow=hidden;rotatable=0;points=[[0,0.5],[1,0.5]];portConstraint=eastwest;whiteSpace=wrap;html=1;" parent="XoDTWIKJpNxpfKzpVEM2-91" vertex="1">
          <mxGeometry y="26" width="130" height="46" as="geometry" />
        </mxCell>
        <mxCell id="XoDTWIKJpNxpfKzpVEM2-94" value="&lt;span style=&quot;font-weight: normal;&quot;&gt;Pizza &amp;lt;&amp;lt;Abstract&amp;gt;&amp;gt;&lt;/span&gt;" style="swimlane;fontStyle=1;align=center;verticalAlign=top;childLayout=stackLayout;horizontal=1;startSize=26;horizontalStack=0;resizeParent=1;resizeParentMax=0;resizeLast=0;collapsible=1;marginBottom=0;whiteSpace=wrap;html=1;" parent="WIyWlLk6GJQsqaUBKTNV-1" vertex="1">
          <mxGeometry x="-1210" y="849" width="160" height="52" as="geometry" />
        </mxCell>
        <mxCell id="WuP1_2tCb798RYxcEVrB-111" value="- toppings: List&amp;lt;String&amp;gt;" style="text;strokeColor=none;fillColor=none;align=left;verticalAlign=top;spacingLeft=4;spacingRight=4;overflow=hidden;rotatable=0;points=[[0,0.5],[1,0.5]];portConstraint=eastwest;whiteSpace=wrap;html=1;" parent="XoDTWIKJpNxpfKzpVEM2-94" vertex="1">
          <mxGeometry y="26" width="160" height="26" as="geometry" />
        </mxCell>
        <mxCell id="XoDTWIKJpNxpfKzpVEM2-98" value="&lt;span style=&quot;font-weight: normal;&quot;&gt;Pepperoni&lt;/span&gt;" style="swimlane;fontStyle=1;align=center;verticalAlign=top;childLayout=stackLayout;horizontal=1;startSize=26;horizontalStack=0;resizeParent=1;resizeParentMax=0;resizeLast=0;collapsible=1;marginBottom=0;whiteSpace=wrap;html=1;" parent="WIyWlLk6GJQsqaUBKTNV-1" vertex="1">
          <mxGeometry x="-1300" y="974" width="160" height="52" as="geometry" />
        </mxCell>
        <mxCell id="WuP1_2tCb798RYxcEVrB-72" value="+ prepare(): Food" style="text;strokeColor=none;fillColor=none;align=left;verticalAlign=top;spacingLeft=4;spacingRight=4;overflow=hidden;rotatable=0;points=[[0,0.5],[1,0.5]];portConstraint=eastwest;whiteSpace=wrap;html=1;" parent="XoDTWIKJpNxpfKzpVEM2-98" vertex="1">
          <mxGeometry y="26" width="160" height="26" as="geometry" />
        </mxCell>
        <mxCell id="XoDTWIKJpNxpfKzpVEM2-102" value="&lt;span style=&quot;font-weight: normal;&quot;&gt;Cheese&lt;/span&gt;" style="swimlane;fontStyle=1;align=center;verticalAlign=top;childLayout=stackLayout;horizontal=1;startSize=26;horizontalStack=0;resizeParent=1;resizeParentMax=0;resizeLast=0;collapsible=1;marginBottom=0;whiteSpace=wrap;html=1;" parent="WIyWlLk6GJQsqaUBKTNV-1" vertex="1">
          <mxGeometry x="-1120" y="974" width="160" height="52" as="geometry" />
        </mxCell>
        <mxCell id="WuP1_2tCb798RYxcEVrB-73" value="+ prepare(): Food" style="text;strokeColor=none;fillColor=none;align=left;verticalAlign=top;spacingLeft=4;spacingRight=4;overflow=hidden;rotatable=0;points=[[0,0.5],[1,0.5]];portConstraint=eastwest;whiteSpace=wrap;html=1;" parent="XoDTWIKJpNxpfKzpVEM2-102" vertex="1">
          <mxGeometry y="26" width="160" height="26" as="geometry" />
        </mxCell>
        <mxCell id="XoDTWIKJpNxpfKzpVEM2-106" value="&lt;span style=&quot;font-weight: normal;&quot;&gt;All-Dress&lt;/span&gt;" style="swimlane;fontStyle=1;align=center;verticalAlign=top;childLayout=stackLayout;horizontal=1;startSize=26;horizontalStack=0;resizeParent=1;resizeParentMax=0;resizeLast=0;collapsible=1;marginBottom=0;whiteSpace=wrap;html=1;" parent="WIyWlLk6GJQsqaUBKTNV-1" vertex="1">
          <mxGeometry x="-1210" y="1067" width="160" height="52" as="geometry" />
        </mxCell>
        <mxCell id="WuP1_2tCb798RYxcEVrB-71" value="+ prepare(): Food" style="text;strokeColor=none;fillColor=none;align=left;verticalAlign=top;spacingLeft=4;spacingRight=4;overflow=hidden;rotatable=0;points=[[0,0.5],[1,0.5]];portConstraint=eastwest;whiteSpace=wrap;html=1;" parent="XoDTWIKJpNxpfKzpVEM2-106" vertex="1">
          <mxGeometry y="26" width="160" height="26" as="geometry" />
        </mxCell>
        <mxCell id="XoDTWIKJpNxpfKzpVEM2-114" value="&lt;span style=&quot;font-weight: normal;&quot;&gt;HotdogFactory&lt;/span&gt;" style="swimlane;fontStyle=1;align=center;verticalAlign=top;childLayout=stackLayout;horizontal=1;startSize=26;horizontalStack=0;resizeParent=1;resizeParentMax=0;resizeLast=0;collapsible=1;marginBottom=0;whiteSpace=wrap;html=1;" parent="WIyWlLk6GJQsqaUBKTNV-1" vertex="1">
          <mxGeometry x="-1640" y="360" width="135" height="72" as="geometry" />
        </mxCell>
        <mxCell id="XoDTWIKJpNxpfKzpVEM2-116" value="+createHotdog(request: String): Hotdog" style="text;strokeColor=none;fillColor=none;align=left;verticalAlign=top;spacingLeft=4;spacingRight=4;overflow=hidden;rotatable=0;points=[[0,0.5],[1,0.5]];portConstraint=eastwest;whiteSpace=wrap;html=1;" parent="XoDTWIKJpNxpfKzpVEM2-114" vertex="1">
          <mxGeometry y="26" width="135" height="46" as="geometry" />
        </mxCell>
        <mxCell id="XoDTWIKJpNxpfKzpVEM2-121" value="&lt;span style=&quot;font-weight: normal;&quot;&gt;GlizzyGobbler&lt;/span&gt;" style="swimlane;fontStyle=1;align=center;verticalAlign=top;childLayout=stackLayout;horizontal=1;startSize=26;horizontalStack=0;resizeParent=1;resizeParentMax=0;resizeLast=0;collapsible=1;marginBottom=0;whiteSpace=wrap;html=1;" parent="WIyWlLk6GJQsqaUBKTNV-1" vertex="1">
          <mxGeometry x="-1550" y="1045" width="110" height="52" as="geometry" />
        </mxCell>
        <mxCell id="WuP1_2tCb798RYxcEVrB-69" value="+ prepare(): Food" style="text;strokeColor=none;fillColor=none;align=left;verticalAlign=top;spacingLeft=4;spacingRight=4;overflow=hidden;rotatable=0;points=[[0,0.5],[1,0.5]];portConstraint=eastwest;whiteSpace=wrap;html=1;" parent="XoDTWIKJpNxpfKzpVEM2-121" vertex="1">
          <mxGeometry y="26" width="110" height="26" as="geometry" />
        </mxCell>
        <mxCell id="XoDTWIKJpNxpfKzpVEM2-125" value="&lt;span style=&quot;font-weight: normal;&quot;&gt;Millimeter Defeater&lt;/span&gt;" style="swimlane;fontStyle=1;align=center;verticalAlign=top;childLayout=stackLayout;horizontal=1;startSize=26;horizontalStack=0;resizeParent=1;resizeParentMax=0;resizeLast=0;collapsible=1;marginBottom=0;whiteSpace=wrap;html=1;" parent="WIyWlLk6GJQsqaUBKTNV-1" vertex="1">
          <mxGeometry x="-1400" y="1045" width="140" height="52" as="geometry" />
        </mxCell>
        <mxCell id="WuP1_2tCb798RYxcEVrB-70" value="+ prepare(): Food" style="text;strokeColor=none;fillColor=none;align=left;verticalAlign=top;spacingLeft=4;spacingRight=4;overflow=hidden;rotatable=0;points=[[0,0.5],[1,0.5]];portConstraint=eastwest;whiteSpace=wrap;html=1;" parent="XoDTWIKJpNxpfKzpVEM2-125" vertex="1">
          <mxGeometry y="26" width="140" height="26" as="geometry" />
        </mxCell>
        <mxCell id="XoDTWIKJpNxpfKzpVEM2-137" value="&lt;span style=&quot;font-weight: normal;&quot;&gt;DrinkFactory&lt;/span&gt;" style="swimlane;fontStyle=1;align=center;verticalAlign=top;childLayout=stackLayout;horizontal=1;startSize=26;horizontalStack=0;resizeParent=1;resizeParentMax=0;resizeLast=0;collapsible=1;marginBottom=0;whiteSpace=wrap;html=1;" parent="WIyWlLk6GJQsqaUBKTNV-1" vertex="1">
          <mxGeometry x="-1791" y="360" width="141" height="70" as="geometry" />
        </mxCell>
        <mxCell id="XoDTWIKJpNxpfKzpVEM2-139" value="+ createDrink(request: String): Drink" style="text;strokeColor=none;fillColor=none;align=left;verticalAlign=top;spacingLeft=4;spacingRight=4;overflow=hidden;rotatable=0;points=[[0,0.5],[1,0.5]];portConstraint=eastwest;whiteSpace=wrap;html=1;" parent="XoDTWIKJpNxpfKzpVEM2-137" vertex="1">
          <mxGeometry y="26" width="141" height="44" as="geometry" />
        </mxCell>
        <mxCell id="XoDTWIKJpNxpfKzpVEM2-140" value="&lt;span style=&quot;font-weight: normal;&quot;&gt;Drink &amp;lt;&amp;lt;Abstract&amp;gt;&amp;gt;&lt;/span&gt;" style="swimlane;fontStyle=1;align=center;verticalAlign=top;childLayout=stackLayout;horizontal=1;startSize=26;horizontalStack=0;resizeParent=1;resizeParentMax=0;resizeLast=0;collapsible=1;marginBottom=0;whiteSpace=wrap;html=1;" parent="WIyWlLk6GJQsqaUBKTNV-1" vertex="1">
          <mxGeometry x="-1951" y="857.5" width="160" height="78" as="geometry" />
        </mxCell>
        <mxCell id="WuP1_2tCb798RYxcEVrB-51" value="- size: DrinkSize" style="text;strokeColor=none;fillColor=none;align=left;verticalAlign=top;spacingLeft=4;spacingRight=4;overflow=hidden;rotatable=0;points=[[0,0.5],[1,0.5]];portConstraint=eastwest;whiteSpace=wrap;html=1;" parent="XoDTWIKJpNxpfKzpVEM2-140" vertex="1">
          <mxGeometry y="26" width="160" height="26" as="geometry" />
        </mxCell>
        <mxCell id="WuP1_2tCb798RYxcEVrB-79" value="- sugarContent: int" style="text;strokeColor=none;fillColor=none;align=left;verticalAlign=top;spacingLeft=4;spacingRight=4;overflow=hidden;rotatable=0;points=[[0,0.5],[1,0.5]];portConstraint=eastwest;whiteSpace=wrap;html=1;" parent="XoDTWIKJpNxpfKzpVEM2-140" vertex="1">
          <mxGeometry y="52" width="160" height="26" as="geometry" />
        </mxCell>
        <mxCell id="XoDTWIKJpNxpfKzpVEM2-144" value="&lt;span style=&quot;font-weight: normal;&quot;&gt;Coke&lt;/span&gt;" style="swimlane;fontStyle=1;align=center;verticalAlign=top;childLayout=stackLayout;horizontal=1;startSize=26;horizontalStack=0;resizeParent=1;resizeParentMax=0;resizeLast=0;collapsible=1;marginBottom=0;whiteSpace=wrap;html=1;" parent="WIyWlLk6GJQsqaUBKTNV-1" vertex="1">
          <mxGeometry x="-2040" y="987.25" width="160" height="52" as="geometry" />
        </mxCell>
        <mxCell id="WuP1_2tCb798RYxcEVrB-76" value="+ prepare(): Food" style="text;strokeColor=none;fillColor=none;align=left;verticalAlign=top;spacingLeft=4;spacingRight=4;overflow=hidden;rotatable=0;points=[[0,0.5],[1,0.5]];portConstraint=eastwest;whiteSpace=wrap;html=1;" parent="XoDTWIKJpNxpfKzpVEM2-144" vertex="1">
          <mxGeometry y="26" width="160" height="26" as="geometry" />
        </mxCell>
        <mxCell id="XoDTWIKJpNxpfKzpVEM2-148" value="&lt;span style=&quot;font-weight: normal;&quot;&gt;7 up&lt;/span&gt;" style="swimlane;fontStyle=1;align=center;verticalAlign=top;childLayout=stackLayout;horizontal=1;startSize=26;horizontalStack=0;resizeParent=1;resizeParentMax=0;resizeLast=0;collapsible=1;marginBottom=0;whiteSpace=wrap;html=1;" parent="WIyWlLk6GJQsqaUBKTNV-1" vertex="1">
          <mxGeometry x="-1860" y="987.25" width="160" height="52" as="geometry" />
        </mxCell>
        <mxCell id="WuP1_2tCb798RYxcEVrB-74" value="+ prepare(): Food" style="text;strokeColor=none;fillColor=none;align=left;verticalAlign=top;spacingLeft=4;spacingRight=4;overflow=hidden;rotatable=0;points=[[0,0.5],[1,0.5]];portConstraint=eastwest;whiteSpace=wrap;html=1;" parent="XoDTWIKJpNxpfKzpVEM2-148" vertex="1">
          <mxGeometry y="26" width="160" height="26" as="geometry" />
        </mxCell>
        <mxCell id="XoDTWIKJpNxpfKzpVEM2-152" value="&lt;span style=&quot;font-weight: normal;&quot;&gt;Water&lt;/span&gt;" style="swimlane;fontStyle=1;align=center;verticalAlign=top;childLayout=stackLayout;horizontal=1;startSize=26;horizontalStack=0;resizeParent=1;resizeParentMax=0;resizeLast=0;collapsible=1;marginBottom=0;whiteSpace=wrap;html=1;" parent="WIyWlLk6GJQsqaUBKTNV-1" vertex="1">
          <mxGeometry x="-1951" y="1068.75" width="160" height="52" as="geometry" />
        </mxCell>
        <mxCell id="WuP1_2tCb798RYxcEVrB-75" value="+ prepare(): Food" style="text;strokeColor=none;fillColor=none;align=left;verticalAlign=top;spacingLeft=4;spacingRight=4;overflow=hidden;rotatable=0;points=[[0,0.5],[1,0.5]];portConstraint=eastwest;whiteSpace=wrap;html=1;" parent="XoDTWIKJpNxpfKzpVEM2-152" vertex="1">
          <mxGeometry y="26" width="160" height="26" as="geometry" />
        </mxCell>
        <mxCell id="XoDTWIKJpNxpfKzpVEM2-160" value="&lt;span style=&quot;font-weight: normal;&quot;&gt;FriesFactory&lt;/span&gt;" style="swimlane;fontStyle=1;align=center;verticalAlign=top;childLayout=stackLayout;horizontal=1;startSize=26;horizontalStack=0;resizeParent=1;resizeParentMax=0;resizeLast=0;collapsible=1;marginBottom=0;whiteSpace=wrap;html=1;" parent="WIyWlLk6GJQsqaUBKTNV-1" vertex="1">
          <mxGeometry x="-1970" y="362" width="170" height="70" as="geometry" />
        </mxCell>
        <mxCell id="XoDTWIKJpNxpfKzpVEM2-162" value="+ createFries(request: String): Fries" style="text;strokeColor=none;fillColor=none;align=left;verticalAlign=top;spacingLeft=4;spacingRight=4;overflow=hidden;rotatable=0;points=[[0,0.5],[1,0.5]];portConstraint=eastwest;whiteSpace=wrap;html=1;" parent="XoDTWIKJpNxpfKzpVEM2-160" vertex="1">
          <mxGeometry y="26" width="170" height="44" as="geometry" />
        </mxCell>
        <mxCell id="XoDTWIKJpNxpfKzpVEM2-163" value="&lt;span style=&quot;font-weight: normal;&quot;&gt;Fries &lt;br&gt;&lt;/span&gt;" style="swimlane;fontStyle=1;align=center;verticalAlign=top;childLayout=stackLayout;horizontal=1;startSize=26;horizontalStack=0;resizeParent=1;resizeParentMax=0;resizeLast=0;collapsible=1;marginBottom=0;whiteSpace=wrap;html=1;" parent="WIyWlLk6GJQsqaUBKTNV-1" vertex="1">
          <mxGeometry x="-2425" y="849" width="160" height="90" as="geometry" />
        </mxCell>
        <mxCell id="XoDTWIKJpNxpfKzpVEM2-276" value="&amp;nbsp;- size: FriesSize" style="text;html=1;align=left;verticalAlign=middle;whiteSpace=wrap;rounded=0;" parent="XoDTWIKJpNxpfKzpVEM2-163" vertex="1">
          <mxGeometry y="26" width="160" height="30" as="geometry" />
        </mxCell>
        <mxCell id="WuP1_2tCb798RYxcEVrB-78" value="" style="line;strokeWidth=1;fillColor=none;align=left;verticalAlign=middle;spacingTop=-1;spacingLeft=3;spacingRight=3;rotatable=0;labelPosition=right;points=[];portConstraint=eastwest;strokeColor=inherit;" parent="XoDTWIKJpNxpfKzpVEM2-163" vertex="1">
          <mxGeometry y="56" width="160" height="8" as="geometry" />
        </mxCell>
        <mxCell id="WuP1_2tCb798RYxcEVrB-77" value="+ prepare(): Food" style="text;strokeColor=none;fillColor=none;align=left;verticalAlign=top;spacingLeft=4;spacingRight=4;overflow=hidden;rotatable=0;points=[[0,0.5],[1,0.5]];portConstraint=eastwest;whiteSpace=wrap;html=1;" parent="XoDTWIKJpNxpfKzpVEM2-163" vertex="1">
          <mxGeometry y="64" width="160" height="26" as="geometry" />
        </mxCell>
        <mxCell id="XoDTWIKJpNxpfKzpVEM2-192" value="&lt;span style=&quot;font-weight: normal;&quot;&gt;FoodFactoryCreator&lt;/span&gt;" style="swimlane;fontStyle=1;align=center;verticalAlign=top;childLayout=stackLayout;horizontal=1;startSize=26;horizontalStack=0;resizeParent=1;resizeParentMax=0;resizeLast=0;collapsible=1;marginBottom=0;whiteSpace=wrap;html=1;" parent="WIyWlLk6GJQsqaUBKTNV-1" vertex="1">
          <mxGeometry x="-1460" y="80" width="170" height="56" as="geometry" />
        </mxCell>
        <mxCell id="XoDTWIKJpNxpfKzpVEM2-280" value="&lt;span style=&quot;text-align: left;&quot;&gt;+getFactory():AbstractFactory&lt;/span&gt;" style="text;html=1;align=center;verticalAlign=middle;whiteSpace=wrap;rounded=0;" parent="XoDTWIKJpNxpfKzpVEM2-192" vertex="1">
          <mxGeometry y="26" width="170" height="30" as="geometry" />
        </mxCell>
        <mxCell id="XoDTWIKJpNxpfKzpVEM2-196" value="&lt;span style=&quot;font-weight: normal;&quot;&gt;AbstractFactory &amp;lt;&amp;lt;Abstract&amp;gt;&amp;gt;&lt;/span&gt;" style="swimlane;fontStyle=1;align=center;verticalAlign=top;childLayout=stackLayout;horizontal=1;startSize=26;horizontalStack=0;resizeParent=1;resizeParentMax=0;resizeLast=0;collapsible=1;marginBottom=0;whiteSpace=wrap;html=1;" parent="WIyWlLk6GJQsqaUBKTNV-1" vertex="1">
          <mxGeometry x="-1745" y="50" width="210" height="200" as="geometry" />
        </mxCell>
        <mxCell id="XoDTWIKJpNxpfKzpVEM2-199" value="+ createBurger(request: String): Burger" style="text;align=left;verticalAlign=top;spacingLeft=4;spacingRight=4;overflow=hidden;rotatable=0;points=[[0,0.5],[1,0.5]];portConstraint=eastwest;whiteSpace=wrap;html=1;perimeterSpacing=1;" parent="XoDTWIKJpNxpfKzpVEM2-196" vertex="1">
          <mxGeometry y="26" width="210" height="34" as="geometry" />
        </mxCell>
        <mxCell id="XoDTWIKJpNxpfKzpVEM2-200" value="+ createPizza(request: String): Pizza" style="text;strokeColor=none;fillColor=none;align=left;verticalAlign=top;spacingLeft=4;spacingRight=4;overflow=hidden;rotatable=0;points=[[0,0.5],[1,0.5]];portConstraint=eastwest;whiteSpace=wrap;html=1;" parent="XoDTWIKJpNxpfKzpVEM2-196" vertex="1">
          <mxGeometry y="60" width="210" height="20" as="geometry" />
        </mxCell>
        <mxCell id="XoDTWIKJpNxpfKzpVEM2-202" value="&lt;span style=&quot;color: rgb(0, 0, 0); font-family: Helvetica; font-size: 12px; font-style: normal; font-variant-ligatures: normal; font-variant-caps: normal; font-weight: 400; letter-spacing: normal; orphans: 2; text-align: left; text-indent: 0px; text-transform: none; widows: 2; word-spacing: 0px; -webkit-text-stroke-width: 0px; white-space: normal; background-color: rgb(251, 251, 251); text-decoration-thickness: initial; text-decoration-style: initial; text-decoration-color: initial; display: inline !important; float: none;&quot;&gt;+ createDrink(request: String, size: String): Drink&lt;/span&gt;" style="text;strokeColor=none;fillColor=none;align=left;verticalAlign=top;spacingLeft=4;spacingRight=4;overflow=hidden;rotatable=0;points=[[0,0.5],[1,0.5]];portConstraint=eastwest;whiteSpace=wrap;html=1;" parent="XoDTWIKJpNxpfKzpVEM2-196" vertex="1">
          <mxGeometry y="80" width="210" height="40" as="geometry" />
        </mxCell>
        <mxCell id="XoDTWIKJpNxpfKzpVEM2-201" value="+createHotdog(request: String, bunType: String): Hotdog" style="text;strokeColor=none;fillColor=none;align=left;verticalAlign=top;spacingLeft=4;spacingRight=4;overflow=hidden;rotatable=0;points=[[0,0.5],[1,0.5]];portConstraint=eastwest;whiteSpace=wrap;html=1;" parent="XoDTWIKJpNxpfKzpVEM2-196" vertex="1">
          <mxGeometry y="120" width="210" height="40" as="geometry" />
        </mxCell>
        <mxCell id="XoDTWIKJpNxpfKzpVEM2-204" value="&lt;span style=&quot;color: rgb(0, 0, 0); font-family: Helvetica; font-size: 12px; font-style: normal; font-variant-ligatures: normal; font-variant-caps: normal; font-weight: 400; letter-spacing: normal; orphans: 2; text-align: left; text-indent: 0px; text-transform: none; widows: 2; word-spacing: 0px; -webkit-text-stroke-width: 0px; white-space: normal; background-color: rgb(251, 251, 251); text-decoration-thickness: initial; text-decoration-style: initial; text-decoration-color: initial; display: inline !important; float: none;&quot;&gt;+ createFries(request: String, size: String): Fries&lt;/span&gt;" style="text;whiteSpace=wrap;html=1;" parent="XoDTWIKJpNxpfKzpVEM2-196" vertex="1">
          <mxGeometry y="160" width="210" height="40" as="geometry" />
        </mxCell>
        <mxCell id="XoDTWIKJpNxpfKzpVEM2-205" value="" style="endArrow=classic;html=1;rounded=0;entryX=1;entryY=0.5;entryDx=0;entryDy=0;" parent="WIyWlLk6GJQsqaUBKTNV-1" source="XoDTWIKJpNxpfKzpVEM2-280" target="XoDTWIKJpNxpfKzpVEM2-200" edge="1">
          <mxGeometry width="50" height="50" relative="1" as="geometry">
            <mxPoint x="-1430.5100000000002" y="83.76600000000008" as="sourcePoint" />
            <mxPoint x="-1250" y="50" as="targetPoint" />
          </mxGeometry>
        </mxCell>
        <mxCell id="WuP1_2tCb798RYxcEVrB-113" value="creates" style="edgeLabel;html=1;align=center;verticalAlign=middle;resizable=0;points=[];" parent="XoDTWIKJpNxpfKzpVEM2-205" connectable="0" vertex="1">
          <mxGeometry x="-0.4412" relative="1" as="geometry">
            <mxPoint x="-29" y="-17" as="offset" />
          </mxGeometry>
        </mxCell>
        <mxCell id="XoDTWIKJpNxpfKzpVEM2-206" value="is created by" style="text;html=1;align=center;verticalAlign=middle;resizable=0;points=[];autosize=1;strokeColor=none;fillColor=none;" parent="WIyWlLk6GJQsqaUBKTNV-1" vertex="1">
          <mxGeometry x="-1490" y="135" width="100" height="30" as="geometry" />
        </mxCell>
        <mxCell id="XoDTWIKJpNxpfKzpVEM2-217" value="&lt;span style=&quot;font-weight: normal;&quot;&gt;Burger &amp;lt;&amp;lt;Abstract&amp;gt;&amp;gt;&lt;/span&gt;" style="swimlane;fontStyle=1;align=center;verticalAlign=top;childLayout=stackLayout;horizontal=1;startSize=26;horizontalStack=0;resizeParent=1;resizeParentMax=0;resizeLast=0;collapsible=1;marginBottom=0;whiteSpace=wrap;html=1;" parent="WIyWlLk6GJQsqaUBKTNV-1" vertex="1">
          <mxGeometry x="-850" y="844.5" width="160" height="52" as="geometry" />
        </mxCell>
        <mxCell id="WuP1_2tCb798RYxcEVrB-112" value="- sauce" style="text;strokeColor=none;fillColor=none;align=left;verticalAlign=top;spacingLeft=4;spacingRight=4;overflow=hidden;rotatable=0;points=[[0,0.5],[1,0.5]];portConstraint=eastwest;whiteSpace=wrap;html=1;" parent="XoDTWIKJpNxpfKzpVEM2-217" vertex="1">
          <mxGeometry y="26" width="160" height="26" as="geometry" />
        </mxCell>
        <mxCell id="WuP1_2tCb798RYxcEVrB-10" value="" style="endArrow=classic;html=1;rounded=0;endSize=15;" parent="WIyWlLk6GJQsqaUBKTNV-1" source="WuP1_2tCb798RYxcEVrB-3" target="XoDTWIKJpNxpfKzpVEM2-20" edge="1">
          <mxGeometry width="50" height="50" relative="1" as="geometry">
            <mxPoint x="-157" y="1000" as="sourcePoint" />
            <mxPoint x="-157" y="870" as="targetPoint" />
          </mxGeometry>
        </mxCell>
        <mxCell id="WuP1_2tCb798RYxcEVrB-15" value="receives" style="edgeLabel;html=1;align=center;verticalAlign=middle;resizable=0;points=[];" parent="WuP1_2tCb798RYxcEVrB-10" vertex="1" connectable="0">
          <mxGeometry x="-0.3277" y="-3" relative="1" as="geometry">
            <mxPoint x="22" y="-9" as="offset" />
          </mxGeometry>
        </mxCell>
        <mxCell id="WuP1_2tCb798RYxcEVrB-18" value="is deposited to" style="edgeLabel;html=1;align=center;verticalAlign=middle;resizable=0;points=[];" parent="WuP1_2tCb798RYxcEVrB-10" vertex="1" connectable="0">
          <mxGeometry x="0.1227" y="-3" relative="1" as="geometry">
            <mxPoint x="-25" y="33" as="offset" />
          </mxGeometry>
        </mxCell>
        <mxCell id="WuP1_2tCb798RYxcEVrB-19" value="Order" style="swimlane;fontStyle=0;childLayout=stackLayout;horizontal=1;startSize=26;fillColor=none;horizontalStack=0;resizeParent=1;resizeParentMax=0;resizeLast=0;collapsible=1;marginBottom=0;whiteSpace=wrap;html=1;" parent="WIyWlLk6GJQsqaUBKTNV-1" vertex="1">
          <mxGeometry x="-1080" y="480" width="230" height="190" as="geometry" />
        </mxCell>
        <mxCell id="WuP1_2tCb798RYxcEVrB-20" value="- foods: List&amp;lt;Food&amp;gt;" style="text;strokeColor=none;fillColor=none;align=left;verticalAlign=top;spacingLeft=4;spacingRight=4;overflow=hidden;rotatable=0;points=[[0,0.5],[1,0.5]];portConstraint=eastwest;whiteSpace=wrap;html=1;" parent="WuP1_2tCb798RYxcEVrB-19" vertex="1">
          <mxGeometry y="26" width="230" height="26" as="geometry" />
        </mxCell>
        <mxCell id="WuP1_2tCb798RYxcEVrB-21" value="- client : Client" style="text;strokeColor=none;fillColor=none;align=left;verticalAlign=top;spacingLeft=4;spacingRight=4;overflow=hidden;rotatable=0;points=[[0,0.5],[1,0.5]];portConstraint=eastwest;whiteSpace=wrap;html=1;" parent="WuP1_2tCb798RYxcEVrB-19" vertex="1">
          <mxGeometry y="52" width="230" height="26" as="geometry" />
        </mxCell>
        <mxCell id="WuP1_2tCb798RYxcEVrB-22" value="- restaurant : Restaurant" style="text;strokeColor=none;fillColor=none;align=left;verticalAlign=top;spacingLeft=4;spacingRight=4;overflow=hidden;rotatable=0;points=[[0,0.5],[1,0.5]];portConstraint=eastwest;whiteSpace=wrap;html=1;" parent="WuP1_2tCb798RYxcEVrB-19" vertex="1">
          <mxGeometry y="78" width="230" height="26" as="geometry" />
        </mxCell>
        <mxCell id="WuP1_2tCb798RYxcEVrB-24" value="- orderTime : LocalDateTime" style="text;strokeColor=none;fillColor=none;align=left;verticalAlign=top;spacingLeft=4;spacingRight=4;overflow=hidden;rotatable=0;points=[[0,0.5],[1,0.5]];portConstraint=eastwest;whiteSpace=wrap;html=1;" parent="WuP1_2tCb798RYxcEVrB-19" vertex="1">
          <mxGeometry y="104" width="230" height="26" as="geometry" />
        </mxCell>
        <mxCell id="WuP1_2tCb798RYxcEVrB-28" value="" style="line;strokeWidth=1;fillColor=none;align=left;verticalAlign=middle;spacingTop=-1;spacingLeft=3;spacingRight=3;rotatable=0;labelPosition=right;points=[];portConstraint=eastwest;strokeColor=inherit;" parent="WuP1_2tCb798RYxcEVrB-19" vertex="1">
          <mxGeometry y="130" width="230" height="8" as="geometry" />
        </mxCell>
        <mxCell id="WuP1_2tCb798RYxcEVrB-29" value="+ calculateTotalPrice(): double" style="text;strokeColor=none;fillColor=none;align=left;verticalAlign=top;spacingLeft=4;spacingRight=4;overflow=hidden;rotatable=0;points=[[0,0.5],[1,0.5]];portConstraint=eastwest;whiteSpace=wrap;html=1;" parent="WuP1_2tCb798RYxcEVrB-19" vertex="1">
          <mxGeometry y="138" width="230" height="26" as="geometry" />
        </mxCell>
        <mxCell id="WuP1_2tCb798RYxcEVrB-30" value="+ calculateTotalCookTime(): int" style="text;strokeColor=none;fillColor=none;align=left;verticalAlign=top;spacingLeft=4;spacingRight=4;overflow=hidden;rotatable=0;points=[[0,0.5],[1,0.5]];portConstraint=eastwest;whiteSpace=wrap;html=1;" parent="WuP1_2tCb798RYxcEVrB-19" vertex="1">
          <mxGeometry y="164" width="230" height="26" as="geometry" />
        </mxCell>
        <mxCell id="WuP1_2tCb798RYxcEVrB-31" value="" style="endArrow=diamondThin;endFill=1;endSize=24;html=1;rounded=0;entryX=0;entryY=0.5;entryDx=0;entryDy=0;" parent="WIyWlLk6GJQsqaUBKTNV-1" source="WuP1_2tCb798RYxcEVrB-19" target="XoDTWIKJpNxpfKzpVEM2-20" edge="1">
          <mxGeometry width="160" relative="1" as="geometry">
            <mxPoint x="-490" y="900" as="sourcePoint" />
            <mxPoint x="-640" y="660" as="targetPoint" />
            <Array as="points">
              <mxPoint x="-965" y="720" />
            </Array>
          </mxGeometry>
        </mxCell>
        <mxCell id="WuP1_2tCb798RYxcEVrB-32" value="is fulfilled by" style="edgeLabel;html=1;align=center;verticalAlign=middle;resizable=0;points=[];" parent="WuP1_2tCb798RYxcEVrB-31" vertex="1" connectable="0">
          <mxGeometry x="-0.0164" y="1" relative="1" as="geometry">
            <mxPoint x="118" y="-9" as="offset" />
          </mxGeometry>
        </mxCell>
        <mxCell id="WuP1_2tCb798RYxcEVrB-33" value="fulfills" style="edgeLabel;html=1;align=center;verticalAlign=middle;resizable=0;points=[];" parent="WuP1_2tCb798RYxcEVrB-31" vertex="1" connectable="0">
          <mxGeometry x="-0.1255" y="3" relative="1" as="geometry">
            <mxPoint x="-99" y="-17" as="offset" />
          </mxGeometry>
        </mxCell>
        <mxCell id="WuP1_2tCb798RYxcEVrB-34" value="[0, n]" style="edgeLabel;html=1;align=center;verticalAlign=middle;resizable=0;points=[];" parent="WuP1_2tCb798RYxcEVrB-31" vertex="1" connectable="0">
          <mxGeometry x="-0.1618" y="-2" relative="1" as="geometry">
            <mxPoint x="208" y="-22" as="offset" />
          </mxGeometry>
        </mxCell>
        <mxCell id="WuP1_2tCb798RYxcEVrB-35" value="&lt;div&gt;[1]&lt;/div&gt;" style="edgeLabel;html=1;align=center;verticalAlign=middle;resizable=0;points=[];" parent="WuP1_2tCb798RYxcEVrB-31" vertex="1" connectable="0">
          <mxGeometry x="0.2382" y="1" relative="1" as="geometry">
            <mxPoint x="-184" y="-38" as="offset" />
          </mxGeometry>
        </mxCell>
        <mxCell id="XoDTWIKJpNxpfKzpVEM2-185" value="&lt;span style=&quot;font-weight: normal;&quot;&gt;Food &amp;lt;&amp;lt;Abstract&amp;gt;&amp;gt;&lt;/span&gt;" style="swimlane;fontStyle=1;align=center;verticalAlign=top;childLayout=stackLayout;horizontal=1;startSize=26;horizontalStack=0;resizeParent=1;resizeParentMax=0;resizeLast=0;collapsible=1;marginBottom=0;whiteSpace=wrap;html=1;" parent="WIyWlLk6GJQsqaUBKTNV-1" vertex="1">
          <mxGeometry x="-1710" y="570" width="210" height="138" as="geometry" />
        </mxCell>
        <mxCell id="XoDTWIKJpNxpfKzpVEM2-186" value="- cookTime: String" style="text;strokeColor=none;fillColor=none;align=left;verticalAlign=top;spacingLeft=4;spacingRight=4;overflow=hidden;rotatable=0;points=[[0,0.5],[1,0.5]];portConstraint=eastwest;whiteSpace=wrap;html=1;" parent="XoDTWIKJpNxpfKzpVEM2-185" vertex="1">
          <mxGeometry y="26" width="210" height="26" as="geometry" />
        </mxCell>
        <mxCell id="XoDTWIKJpNxpfKzpVEM2-190" value="- productId: int&lt;div&gt;&lt;br&gt;&lt;/div&gt;" style="text;strokeColor=none;fillColor=none;align=left;verticalAlign=top;spacingLeft=4;spacingRight=4;overflow=hidden;rotatable=0;points=[[0,0.5],[1,0.5]];portConstraint=eastwest;whiteSpace=wrap;html=1;" parent="XoDTWIKJpNxpfKzpVEM2-185" vertex="1">
          <mxGeometry y="52" width="210" height="26" as="geometry" />
        </mxCell>
        <mxCell id="XoDTWIKJpNxpfKzpVEM2-231" value="- price: double" style="text;strokeColor=none;fillColor=none;align=left;verticalAlign=top;spacingLeft=4;spacingRight=4;overflow=hidden;rotatable=0;points=[[0,0.5],[1,0.5]];portConstraint=eastwest;whiteSpace=wrap;html=1;" parent="XoDTWIKJpNxpfKzpVEM2-185" vertex="1">
          <mxGeometry y="78" width="210" height="26" as="geometry" />
        </mxCell>
        <mxCell id="XoDTWIKJpNxpfKzpVEM2-187" value="" style="line;strokeWidth=1;fillColor=none;align=left;verticalAlign=middle;spacingTop=-1;spacingLeft=3;spacingRight=3;rotatable=0;labelPosition=right;points=[];portConstraint=eastwest;strokeColor=inherit;" parent="XoDTWIKJpNxpfKzpVEM2-185" vertex="1">
          <mxGeometry y="104" width="210" height="8" as="geometry" />
        </mxCell>
        <mxCell id="XoDTWIKJpNxpfKzpVEM2-188" value="+ prepare(): Food &amp;lt;&amp;lt;Abstract&amp;gt;&amp;gt;" style="text;strokeColor=none;fillColor=none;align=left;verticalAlign=top;spacingLeft=4;spacingRight=4;overflow=hidden;rotatable=0;points=[[0,0.5],[1,0.5]];portConstraint=eastwest;whiteSpace=wrap;html=1;" parent="XoDTWIKJpNxpfKzpVEM2-185" vertex="1">
          <mxGeometry y="112" width="210" height="26" as="geometry" />
        </mxCell>
        <mxCell id="XoDTWIKJpNxpfKzpVEM2-117" value="&lt;span style=&quot;font-weight: normal;&quot;&gt;Hotdog&lt;/span&gt; &amp;lt;&amp;lt;&lt;span style=&quot;font-weight: normal;&quot;&gt;Abstract&lt;/span&gt;&amp;gt;&amp;gt;" style="swimlane;fontStyle=1;align=center;verticalAlign=top;childLayout=stackLayout;horizontal=1;startSize=26;horizontalStack=0;resizeParent=1;resizeParentMax=0;resizeLast=0;collapsible=1;marginBottom=0;whiteSpace=wrap;html=1;" parent="WIyWlLk6GJQsqaUBKTNV-1" vertex="1">
          <mxGeometry x="-1460" y="849" width="160" height="78" as="geometry" />
        </mxCell>
        <mxCell id="WuP1_2tCb798RYxcEVrB-36" value="- bun: HotdogBun" style="text;strokeColor=none;fillColor=none;align=left;verticalAlign=top;spacingLeft=4;spacingRight=4;overflow=hidden;rotatable=0;points=[[0,0.5],[1,0.5]];portConstraint=eastwest;whiteSpace=wrap;html=1;" parent="XoDTWIKJpNxpfKzpVEM2-117" vertex="1">
          <mxGeometry y="26" width="160" height="26" as="geometry" />
        </mxCell>
        <mxCell id="WuP1_2tCb798RYxcEVrB-68" value="- spiciness: int" style="text;strokeColor=none;fillColor=none;align=left;verticalAlign=top;spacingLeft=4;spacingRight=4;overflow=hidden;rotatable=0;points=[[0,0.5],[1,0.5]];portConstraint=eastwest;whiteSpace=wrap;html=1;" parent="XoDTWIKJpNxpfKzpVEM2-117" vertex="1">
          <mxGeometry y="52" width="160" height="26" as="geometry" />
        </mxCell>
        <mxCell id="WuP1_2tCb798RYxcEVrB-40" value="City &amp;lt;&amp;lt;Enumeration&amp;gt;&amp;gt;" style="swimlane;fontStyle=0;childLayout=stackLayout;horizontal=1;startSize=26;fillColor=none;horizontalStack=0;resizeParent=1;resizeParentMax=0;resizeLast=0;collapsible=1;marginBottom=0;whiteSpace=wrap;html=1;" parent="WIyWlLk6GJQsqaUBKTNV-1" vertex="1">
          <mxGeometry x="-827" y="344" width="110" height="50" as="geometry" />
        </mxCell>
        <mxCell id="WuP1_2tCb798RYxcEVrB-41" value="Montreal" style="text;strokeColor=none;fillColor=none;align=left;verticalAlign=top;spacingLeft=4;spacingRight=4;overflow=hidden;rotatable=0;points=[[0,0.5],[1,0.5]];portConstraint=eastwest;whiteSpace=wrap;html=1;" parent="WuP1_2tCb798RYxcEVrB-40" vertex="1">
          <mxGeometry y="26" width="110" height="24" as="geometry" />
        </mxCell>
        <mxCell id="WuP1_2tCb798RYxcEVrB-44" value="" style="endArrow=diamondThin;endFill=0;endSize=24;html=1;rounded=0;" parent="WIyWlLk6GJQsqaUBKTNV-1" source="WuP1_2tCb798RYxcEVrB-40" target="zkfFHV4jXpPFQw0GAbJ--18" edge="1">
          <mxGeometry width="160" relative="1" as="geometry">
            <mxPoint x="-770" y="460" as="sourcePoint" />
            <mxPoint x="-610" y="460" as="targetPoint" />
          </mxGeometry>
        </mxCell>
        <mxCell id="WuP1_2tCb798RYxcEVrB-45" value="[1]" style="edgeLabel;html=1;align=center;verticalAlign=middle;resizable=0;points=[];" parent="WuP1_2tCb798RYxcEVrB-44" vertex="1" connectable="0">
          <mxGeometry x="0.1977" y="1" relative="1" as="geometry">
            <mxPoint x="-55" y="-12" as="offset" />
          </mxGeometry>
        </mxCell>
        <mxCell id="WuP1_2tCb798RYxcEVrB-46" value="[0, n]" style="edgeLabel;html=1;align=center;verticalAlign=middle;resizable=0;points=[];" parent="WuP1_2tCb798RYxcEVrB-44" vertex="1" connectable="0">
          <mxGeometry x="-0.1909" relative="1" as="geometry">
            <mxPoint x="49" y="21" as="offset" />
          </mxGeometry>
        </mxCell>
        <mxCell id="WuP1_2tCb798RYxcEVrB-47" value="HotdogBun &amp;lt;&amp;lt;Enumeration&amp;gt;&amp;gt;" style="swimlane;fontStyle=0;childLayout=stackLayout;horizontal=1;startSize=26;fillColor=none;horizontalStack=0;resizeParent=1;resizeParentMax=0;resizeLast=0;collapsible=1;marginBottom=0;whiteSpace=wrap;html=1;" parent="WIyWlLk6GJQsqaUBKTNV-1" vertex="1">
          <mxGeometry x="-1730" y="844.5" width="180" height="104" as="geometry" />
        </mxCell>
        <mxCell id="WuP1_2tCb798RYxcEVrB-48" value="Soggy" style="text;strokeColor=none;fillColor=none;align=left;verticalAlign=top;spacingLeft=4;spacingRight=4;overflow=hidden;rotatable=0;points=[[0,0.5],[1,0.5]];portConstraint=eastwest;whiteSpace=wrap;html=1;" parent="WuP1_2tCb798RYxcEVrB-47" vertex="1">
          <mxGeometry y="26" width="180" height="26" as="geometry" />
        </mxCell>
        <mxCell id="WuP1_2tCb798RYxcEVrB-49" value="White" style="text;strokeColor=none;fillColor=none;align=left;verticalAlign=top;spacingLeft=4;spacingRight=4;overflow=hidden;rotatable=0;points=[[0,0.5],[1,0.5]];portConstraint=eastwest;whiteSpace=wrap;html=1;" parent="WuP1_2tCb798RYxcEVrB-47" vertex="1">
          <mxGeometry y="52" width="180" height="26" as="geometry" />
        </mxCell>
        <mxCell id="WuP1_2tCb798RYxcEVrB-64" value="WholeWheat" style="text;strokeColor=none;fillColor=none;align=left;verticalAlign=top;spacingLeft=4;spacingRight=4;overflow=hidden;rotatable=0;points=[[0,0.5],[1,0.5]];portConstraint=eastwest;whiteSpace=wrap;html=1;" parent="WuP1_2tCb798RYxcEVrB-47" vertex="1">
          <mxGeometry y="78" width="180" height="26" as="geometry" />
        </mxCell>
        <mxCell id="WuP1_2tCb798RYxcEVrB-52" value="DrinkSize &amp;lt;&amp;lt;Enumeration&amp;gt;&amp;gt;" style="swimlane;fontStyle=0;childLayout=stackLayout;horizontal=1;startSize=26;fillColor=none;horizontalStack=0;resizeParent=1;resizeParentMax=0;resizeLast=0;collapsible=1;marginBottom=0;whiteSpace=wrap;html=1;" parent="WIyWlLk6GJQsqaUBKTNV-1" vertex="1">
          <mxGeometry x="-2240" y="857.5" width="210" height="104" as="geometry" />
        </mxCell>
        <mxCell id="WuP1_2tCb798RYxcEVrB-53" value="Small" style="text;strokeColor=none;fillColor=none;align=left;verticalAlign=top;spacingLeft=4;spacingRight=4;overflow=hidden;rotatable=0;points=[[0,0.5],[1,0.5]];portConstraint=eastwest;whiteSpace=wrap;html=1;" parent="WuP1_2tCb798RYxcEVrB-52" vertex="1">
          <mxGeometry y="26" width="210" height="26" as="geometry" />
        </mxCell>
        <mxCell id="WuP1_2tCb798RYxcEVrB-54" value="Medium" style="text;strokeColor=none;fillColor=none;align=left;verticalAlign=top;spacingLeft=4;spacingRight=4;overflow=hidden;rotatable=0;points=[[0,0.5],[1,0.5]];portConstraint=eastwest;whiteSpace=wrap;html=1;" parent="WuP1_2tCb798RYxcEVrB-52" vertex="1">
          <mxGeometry y="52" width="210" height="26" as="geometry" />
        </mxCell>
        <mxCell id="WuP1_2tCb798RYxcEVrB-55" value="Large" style="text;strokeColor=none;fillColor=none;align=left;verticalAlign=top;spacingLeft=4;spacingRight=4;overflow=hidden;rotatable=0;points=[[0,0.5],[1,0.5]];portConstraint=eastwest;whiteSpace=wrap;html=1;" parent="WuP1_2tCb798RYxcEVrB-52" vertex="1">
          <mxGeometry y="78" width="210" height="26" as="geometry" />
        </mxCell>
        <mxCell id="WuP1_2tCb798RYxcEVrB-61" value="" style="endArrow=diamondThin;endFill=0;endSize=24;html=1;rounded=0;" parent="WIyWlLk6GJQsqaUBKTNV-1" source="WuP1_2tCb798RYxcEVrB-53" target="XoDTWIKJpNxpfKzpVEM2-140" edge="1">
          <mxGeometry width="160" relative="1" as="geometry">
            <mxPoint x="-2110" y="906.5" as="sourcePoint" />
            <mxPoint x="-1985" y="906.5" as="targetPoint" />
          </mxGeometry>
        </mxCell>
        <mxCell id="WuP1_2tCb798RYxcEVrB-62" value="[1]" style="edgeLabel;html=1;align=center;verticalAlign=middle;resizable=0;points=[];" parent="WuP1_2tCb798RYxcEVrB-61" vertex="1" connectable="0">
          <mxGeometry x="0.1977" y="1" relative="1" as="geometry">
            <mxPoint x="-37" y="-12" as="offset" />
          </mxGeometry>
        </mxCell>
        <mxCell id="WuP1_2tCb798RYxcEVrB-63" value="[0, n]" style="edgeLabel;html=1;align=center;verticalAlign=middle;resizable=0;points=[];" parent="WuP1_2tCb798RYxcEVrB-61" vertex="1" connectable="0">
          <mxGeometry x="-0.1909" relative="1" as="geometry">
            <mxPoint x="28" y="21" as="offset" />
          </mxGeometry>
        </mxCell>
        <mxCell id="WuP1_2tCb798RYxcEVrB-65" value="" style="endArrow=diamondThin;endFill=0;endSize=24;html=1;rounded=0;" parent="WIyWlLk6GJQsqaUBKTNV-1" source="WuP1_2tCb798RYxcEVrB-48" target="WuP1_2tCb798RYxcEVrB-36" edge="1">
          <mxGeometry width="160" relative="1" as="geometry">
            <mxPoint x="-1579" y="877.5" as="sourcePoint" />
            <mxPoint x="-1500" y="878.5" as="targetPoint" />
          </mxGeometry>
        </mxCell>
        <mxCell id="WuP1_2tCb798RYxcEVrB-66" value="[1]" style="edgeLabel;html=1;align=center;verticalAlign=middle;resizable=0;points=[];" parent="WuP1_2tCb798RYxcEVrB-65" vertex="1" connectable="0">
          <mxGeometry x="0.1977" y="1" relative="1" as="geometry">
            <mxPoint x="-37" y="-12" as="offset" />
          </mxGeometry>
        </mxCell>
        <mxCell id="WuP1_2tCb798RYxcEVrB-67" value="[0, n]" style="edgeLabel;html=1;align=center;verticalAlign=middle;resizable=0;points=[];" parent="WuP1_2tCb798RYxcEVrB-65" vertex="1" connectable="0">
          <mxGeometry x="-0.1909" relative="1" as="geometry">
            <mxPoint x="28" y="21" as="offset" />
          </mxGeometry>
        </mxCell>
        <mxCell id="XoDTWIKJpNxpfKzpVEM2-268" value="FriesSize &amp;lt;&amp;lt;Enumeration&amp;gt;&amp;gt;" style="swimlane;fontStyle=0;childLayout=stackLayout;horizontal=1;startSize=26;fillColor=none;horizontalStack=0;resizeParent=1;resizeParentMax=0;resizeLast=0;collapsible=1;marginBottom=0;whiteSpace=wrap;html=1;" parent="WIyWlLk6GJQsqaUBKTNV-1" vertex="1">
          <mxGeometry x="-2450" y="1002" width="210" height="104" as="geometry" />
        </mxCell>
        <mxCell id="XoDTWIKJpNxpfKzpVEM2-269" value="Small" style="text;strokeColor=none;fillColor=none;align=left;verticalAlign=top;spacingLeft=4;spacingRight=4;overflow=hidden;rotatable=0;points=[[0,0.5],[1,0.5]];portConstraint=eastwest;whiteSpace=wrap;html=1;" parent="XoDTWIKJpNxpfKzpVEM2-268" vertex="1">
          <mxGeometry y="26" width="210" height="26" as="geometry" />
        </mxCell>
        <mxCell id="XoDTWIKJpNxpfKzpVEM2-270" value="Medium" style="text;strokeColor=none;fillColor=none;align=left;verticalAlign=top;spacingLeft=4;spacingRight=4;overflow=hidden;rotatable=0;points=[[0,0.5],[1,0.5]];portConstraint=eastwest;whiteSpace=wrap;html=1;" parent="XoDTWIKJpNxpfKzpVEM2-268" vertex="1">
          <mxGeometry y="52" width="210" height="26" as="geometry" />
        </mxCell>
        <mxCell id="XoDTWIKJpNxpfKzpVEM2-271" value="Large" style="text;strokeColor=none;fillColor=none;align=left;verticalAlign=top;spacingLeft=4;spacingRight=4;overflow=hidden;rotatable=0;points=[[0,0.5],[1,0.5]];portConstraint=eastwest;whiteSpace=wrap;html=1;" parent="XoDTWIKJpNxpfKzpVEM2-268" vertex="1">
          <mxGeometry y="78" width="210" height="26" as="geometry" />
        </mxCell>
        <mxCell id="XoDTWIKJpNxpfKzpVEM2-273" value="" style="endArrow=diamondThin;endFill=0;endSize=24;html=1;rounded=0;" parent="WIyWlLk6GJQsqaUBKTNV-1" source="XoDTWIKJpNxpfKzpVEM2-268" target="WuP1_2tCb798RYxcEVrB-77" edge="1">
          <mxGeometry width="160" relative="1" as="geometry">
            <mxPoint x="-2524" y="940" as="sourcePoint" />
            <mxPoint x="-2504" y="960" as="targetPoint" />
          </mxGeometry>
        </mxCell>
        <mxCell id="XoDTWIKJpNxpfKzpVEM2-274" value="[1]" style="edgeLabel;html=1;align=center;verticalAlign=middle;resizable=0;points=[];" parent="XoDTWIKJpNxpfKzpVEM2-273" connectable="0" vertex="1">
          <mxGeometry x="0.1977" y="1" relative="1" as="geometry">
            <mxPoint x="-18" y="-12" as="offset" />
          </mxGeometry>
        </mxCell>
        <mxCell id="XoDTWIKJpNxpfKzpVEM2-275" value="[0, n]" style="edgeLabel;html=1;align=center;verticalAlign=middle;resizable=0;points=[];" parent="XoDTWIKJpNxpfKzpVEM2-273" connectable="0" vertex="1">
          <mxGeometry x="-0.1909" relative="1" as="geometry">
            <mxPoint x="21" y="13" as="offset" />
          </mxGeometry>
        </mxCell>
        <mxCell id="WuP1_2tCb798RYxcEVrB-81" value="" style="endArrow=block;endSize=10;endFill=0;shadow=0;strokeWidth=1;rounded=0;curved=0;edgeStyle=elbowEdgeStyle;elbow=vertical;exitX=0.5;exitY=0;exitDx=0;exitDy=0;" parent="WIyWlLk6GJQsqaUBKTNV-1" source="XoDTWIKJpNxpfKzpVEM2-121" target="WuP1_2tCb798RYxcEVrB-68" edge="1">
          <mxGeometry width="160" relative="1" as="geometry">
            <mxPoint x="-1619" y="1091.5" as="sourcePoint" />
            <mxPoint x="-1510" y="951.5" as="targetPoint" />
          </mxGeometry>
        </mxCell>
        <mxCell id="WuP1_2tCb798RYxcEVrB-82" value="" style="endArrow=block;endSize=10;endFill=0;shadow=0;strokeWidth=1;rounded=0;curved=0;edgeStyle=elbowEdgeStyle;elbow=vertical;" parent="WIyWlLk6GJQsqaUBKTNV-1" source="XoDTWIKJpNxpfKzpVEM2-125" target="WuP1_2tCb798RYxcEVrB-68" edge="1">
          <mxGeometry width="160" relative="1" as="geometry">
            <mxPoint x="-1280" y="957.5" as="sourcePoint" />
            <mxPoint x="-1171" y="817.5" as="targetPoint" />
          </mxGeometry>
        </mxCell>
        <mxCell id="WuP1_2tCb798RYxcEVrB-83" value="" style="endArrow=block;endSize=10;endFill=0;shadow=0;strokeWidth=1;rounded=0;curved=0;edgeStyle=elbowEdgeStyle;elbow=vertical;" parent="WIyWlLk6GJQsqaUBKTNV-1" source="XoDTWIKJpNxpfKzpVEM2-98" target="XoDTWIKJpNxpfKzpVEM2-94" edge="1">
          <mxGeometry width="160" relative="1" as="geometry">
            <mxPoint x="-1450" y="1011" as="sourcePoint" />
            <mxPoint x="-1341" y="871" as="targetPoint" />
          </mxGeometry>
        </mxCell>
        <mxCell id="WuP1_2tCb798RYxcEVrB-84" value="" style="endArrow=block;endSize=10;endFill=0;shadow=0;strokeWidth=1;rounded=0;curved=0;edgeStyle=elbowEdgeStyle;elbow=vertical;" parent="WIyWlLk6GJQsqaUBKTNV-1" source="XoDTWIKJpNxpfKzpVEM2-106" target="XoDTWIKJpNxpfKzpVEM2-94" edge="1">
          <mxGeometry width="160" relative="1" as="geometry">
            <mxPoint x="-1000" y="989" as="sourcePoint" />
            <mxPoint x="-891" y="849" as="targetPoint" />
          </mxGeometry>
        </mxCell>
        <mxCell id="WuP1_2tCb798RYxcEVrB-85" value="" style="endArrow=block;endSize=10;endFill=0;shadow=0;strokeWidth=1;rounded=0;curved=0;edgeStyle=elbowEdgeStyle;elbow=vertical;" parent="WIyWlLk6GJQsqaUBKTNV-1" source="XoDTWIKJpNxpfKzpVEM2-102" target="XoDTWIKJpNxpfKzpVEM2-94" edge="1">
          <mxGeometry width="160" relative="1" as="geometry">
            <mxPoint x="-1030" y="943" as="sourcePoint" />
            <mxPoint x="-921" y="803" as="targetPoint" />
          </mxGeometry>
        </mxCell>
        <mxCell id="WuP1_2tCb798RYxcEVrB-86" value="" style="endArrow=block;endSize=10;endFill=0;shadow=0;strokeWidth=1;rounded=0;curved=0;edgeStyle=elbowEdgeStyle;elbow=vertical;" parent="WIyWlLk6GJQsqaUBKTNV-1" source="XoDTWIKJpNxpfKzpVEM2-55" target="XoDTWIKJpNxpfKzpVEM2-217" edge="1">
          <mxGeometry width="160" relative="1" as="geometry">
            <mxPoint x="-807" y="983" as="sourcePoint" />
            <mxPoint x="-698" y="843" as="targetPoint" />
          </mxGeometry>
        </mxCell>
        <mxCell id="WuP1_2tCb798RYxcEVrB-87" value="" style="endArrow=block;endSize=10;endFill=0;shadow=0;strokeWidth=1;rounded=0;curved=0;edgeStyle=elbowEdgeStyle;elbow=vertical;" parent="WIyWlLk6GJQsqaUBKTNV-1" source="XoDTWIKJpNxpfKzpVEM2-51" target="XoDTWIKJpNxpfKzpVEM2-217" edge="1">
          <mxGeometry width="160" relative="1" as="geometry">
            <mxPoint x="-737" y="883" as="sourcePoint" />
            <mxPoint x="-757" y="823" as="targetPoint" />
          </mxGeometry>
        </mxCell>
        <mxCell id="WuP1_2tCb798RYxcEVrB-88" value="" style="endArrow=block;endSize=10;endFill=0;shadow=0;strokeWidth=1;rounded=0;curved=0;edgeStyle=elbowEdgeStyle;elbow=vertical;" parent="WIyWlLk6GJQsqaUBKTNV-1" source="XoDTWIKJpNxpfKzpVEM2-47" target="XoDTWIKJpNxpfKzpVEM2-217" edge="1">
          <mxGeometry width="160" relative="1" as="geometry">
            <mxPoint x="-936" y="1043" as="sourcePoint" />
            <mxPoint x="-827" y="903" as="targetPoint" />
          </mxGeometry>
        </mxCell>
        <mxCell id="WuP1_2tCb798RYxcEVrB-90" value="" style="endArrow=block;endSize=10;endFill=0;shadow=0;strokeWidth=1;rounded=0;curved=0;edgeStyle=elbowEdgeStyle;elbow=vertical;" parent="WIyWlLk6GJQsqaUBKTNV-1" source="XoDTWIKJpNxpfKzpVEM2-152" target="WuP1_2tCb798RYxcEVrB-79" edge="1">
          <mxGeometry width="160" relative="1" as="geometry">
            <mxPoint x="-1650" y="914.5" as="sourcePoint" />
            <mxPoint x="-1541" y="774.5" as="targetPoint" />
          </mxGeometry>
        </mxCell>
        <mxCell id="WuP1_2tCb798RYxcEVrB-91" value="" style="endArrow=block;endSize=10;endFill=0;shadow=0;strokeWidth=1;rounded=0;curved=0;edgeStyle=elbowEdgeStyle;elbow=vertical;" parent="WIyWlLk6GJQsqaUBKTNV-1" source="XoDTWIKJpNxpfKzpVEM2-144" target="WuP1_2tCb798RYxcEVrB-79" edge="1">
          <mxGeometry width="160" relative="1" as="geometry">
            <mxPoint x="-2199" y="1109.5" as="sourcePoint" />
            <mxPoint x="-2090" y="969.5" as="targetPoint" />
          </mxGeometry>
        </mxCell>
        <mxCell id="WuP1_2tCb798RYxcEVrB-92" value="" style="endArrow=block;endSize=10;endFill=0;shadow=0;strokeWidth=1;rounded=0;curved=0;edgeStyle=elbowEdgeStyle;elbow=vertical;" parent="WIyWlLk6GJQsqaUBKTNV-1" source="XoDTWIKJpNxpfKzpVEM2-148" target="WuP1_2tCb798RYxcEVrB-79" edge="1">
          <mxGeometry width="160" relative="1" as="geometry">
            <mxPoint x="-1750" y="1007.5" as="sourcePoint" />
            <mxPoint x="-1641" y="867.5" as="targetPoint" />
          </mxGeometry>
        </mxCell>
        <mxCell id="WuP1_2tCb798RYxcEVrB-93" value="" style="endArrow=block;endSize=10;endFill=0;shadow=0;strokeWidth=1;rounded=0;curved=0;edgeStyle=elbowEdgeStyle;elbow=vertical;" parent="WIyWlLk6GJQsqaUBKTNV-1" source="XoDTWIKJpNxpfKzpVEM2-117" target="XoDTWIKJpNxpfKzpVEM2-188" edge="1">
          <mxGeometry width="160" relative="1" as="geometry">
            <mxPoint x="-1349" y="890" as="sourcePoint" />
            <mxPoint x="-1240" y="750" as="targetPoint" />
            <Array as="points">
              <mxPoint x="-1380" y="760" />
            </Array>
          </mxGeometry>
        </mxCell>
        <mxCell id="WuP1_2tCb798RYxcEVrB-94" value="" style="endArrow=block;endSize=10;endFill=0;shadow=0;strokeWidth=1;rounded=0;curved=0;edgeStyle=elbowEdgeStyle;elbow=vertical;exitX=0.5;exitY=0;exitDx=0;exitDy=0;" parent="WIyWlLk6GJQsqaUBKTNV-1" source="XoDTWIKJpNxpfKzpVEM2-94" target="XoDTWIKJpNxpfKzpVEM2-188" edge="1">
          <mxGeometry width="160" relative="1" as="geometry">
            <mxPoint x="-1080" y="830" as="sourcePoint" />
            <mxPoint x="-741" y="640" as="targetPoint" />
            <Array as="points">
              <mxPoint x="-1150" y="760" />
            </Array>
          </mxGeometry>
        </mxCell>
        <mxCell id="WuP1_2tCb798RYxcEVrB-95" value="" style="endArrow=block;endSize=10;endFill=0;shadow=0;strokeWidth=1;rounded=0;curved=0;edgeStyle=elbowEdgeStyle;elbow=vertical;" parent="WIyWlLk6GJQsqaUBKTNV-1" source="XoDTWIKJpNxpfKzpVEM2-140" target="XoDTWIKJpNxpfKzpVEM2-188" edge="1">
          <mxGeometry width="160" relative="1" as="geometry">
            <mxPoint x="-1884.5" y="831" as="sourcePoint" />
            <mxPoint x="-1775.5" y="691" as="targetPoint" />
            <Array as="points">
              <mxPoint x="-1740" y="760" />
            </Array>
          </mxGeometry>
        </mxCell>
        <mxCell id="WuP1_2tCb798RYxcEVrB-96" value="" style="endArrow=block;endSize=10;endFill=0;shadow=0;strokeWidth=1;rounded=0;curved=0;edgeStyle=elbowEdgeStyle;elbow=vertical;" parent="WIyWlLk6GJQsqaUBKTNV-1" source="XoDTWIKJpNxpfKzpVEM2-163" target="XoDTWIKJpNxpfKzpVEM2-188" edge="1">
          <mxGeometry width="160" relative="1" as="geometry">
            <mxPoint x="-2390" y="750" as="sourcePoint" />
            <mxPoint x="-2281" y="610" as="targetPoint" />
            <Array as="points">
              <mxPoint x="-2010" y="760" />
            </Array>
          </mxGeometry>
        </mxCell>
        <mxCell id="XoDTWIKJpNxpfKzpVEM2-283" value="" style="endArrow=classic;html=1;rounded=0;endSize=15;" parent="WIyWlLk6GJQsqaUBKTNV-1" source="XoDTWIKJpNxpfKzpVEM2-162" edge="1">
          <mxGeometry width="50" height="50" relative="1" as="geometry">
            <mxPoint x="-1840" y="440" as="sourcePoint" />
            <mxPoint x="-1619" y="570" as="targetPoint" />
            <Array as="points">
              <mxPoint x="-1885" y="540" />
              <mxPoint x="-1618.53" y="539.96" />
            </Array>
          </mxGeometry>
        </mxCell>
        <mxCell id="WuP1_2tCb798RYxcEVrB-106" value="is created by" style="edgeLabel;html=1;align=center;verticalAlign=middle;resizable=0;points=[];" parent="XoDTWIKJpNxpfKzpVEM2-283" vertex="1" connectable="0">
          <mxGeometry x="-0.807" y="-1" relative="1" as="geometry">
            <mxPoint x="-44" y="-24" as="offset" />
          </mxGeometry>
        </mxCell>
        <mxCell id="XoDTWIKJpNxpfKzpVEM2-285" value="" style="endArrow=none;html=1;rounded=0;" parent="WIyWlLk6GJQsqaUBKTNV-1" edge="1">
          <mxGeometry width="50" height="50" relative="1" as="geometry">
            <mxPoint x="-1700" y="540" as="sourcePoint" />
            <mxPoint x="-1700" y="430" as="targetPoint" />
          </mxGeometry>
        </mxCell>
        <mxCell id="WuP1_2tCb798RYxcEVrB-107" value="is created by" style="edgeLabel;html=1;align=center;verticalAlign=middle;resizable=0;points=[];" parent="XoDTWIKJpNxpfKzpVEM2-285" vertex="1" connectable="0">
          <mxGeometry x="0.4277" y="-3" relative="1" as="geometry">
            <mxPoint x="-48" y="-15" as="offset" />
          </mxGeometry>
        </mxCell>
        <mxCell id="XoDTWIKJpNxpfKzpVEM2-286" value="" style="endArrow=none;html=1;rounded=0;entryX=0.378;entryY=0.964;entryDx=0;entryDy=0;entryPerimeter=0;" parent="WIyWlLk6GJQsqaUBKTNV-1" target="XoDTWIKJpNxpfKzpVEM2-116" edge="1">
          <mxGeometry width="50" height="50" relative="1" as="geometry">
            <mxPoint x="-1590" y="540" as="sourcePoint" />
            <mxPoint x="-1590" y="440" as="targetPoint" />
          </mxGeometry>
        </mxCell>
        <mxCell id="WuP1_2tCb798RYxcEVrB-108" value="is created by" style="edgeLabel;html=1;align=center;verticalAlign=middle;resizable=0;points=[];" parent="XoDTWIKJpNxpfKzpVEM2-286" vertex="1" connectable="0">
          <mxGeometry x="0.3371" y="-1" relative="1" as="geometry">
            <mxPoint x="-42" y="-19" as="offset" />
          </mxGeometry>
        </mxCell>
        <mxCell id="XoDTWIKJpNxpfKzpVEM2-287" value="" style="endArrow=none;html=1;rounded=0;" parent="WIyWlLk6GJQsqaUBKTNV-1" edge="1">
          <mxGeometry width="50" height="50" relative="1" as="geometry">
            <mxPoint x="-1620" y="540" as="sourcePoint" />
            <mxPoint x="-1280" y="540" as="targetPoint" />
          </mxGeometry>
        </mxCell>
        <mxCell id="WuP1_2tCb798RYxcEVrB-105" value="creates" style="edgeLabel;html=1;align=center;verticalAlign=middle;resizable=0;points=[];" parent="XoDTWIKJpNxpfKzpVEM2-287" vertex="1" connectable="0">
          <mxGeometry x="-0.4249" y="2" relative="1" as="geometry">
            <mxPoint x="-53" y="20" as="offset" />
          </mxGeometry>
        </mxCell>
        <mxCell id="XoDTWIKJpNxpfKzpVEM2-288" value="" style="endArrow=none;html=1;rounded=0;entryX=0.613;entryY=1.003;entryDx=0;entryDy=0;entryPerimeter=0;" parent="WIyWlLk6GJQsqaUBKTNV-1" target="XoDTWIKJpNxpfKzpVEM2-93" edge="1">
          <mxGeometry width="50" height="50" relative="1" as="geometry">
            <mxPoint x="-1420" y="540" as="sourcePoint" />
            <mxPoint x="-1370" y="480" as="targetPoint" />
          </mxGeometry>
        </mxCell>
        <mxCell id="WuP1_2tCb798RYxcEVrB-109" value="is created by" style="edgeLabel;html=1;align=center;verticalAlign=middle;resizable=0;points=[];" parent="XoDTWIKJpNxpfKzpVEM2-288" vertex="1" connectable="0">
          <mxGeometry x="0.5582" y="-1" relative="1" as="geometry">
            <mxPoint x="-41" y="-12" as="offset" />
          </mxGeometry>
        </mxCell>
        <mxCell id="XoDTWIKJpNxpfKzpVEM2-289" value="" style="endArrow=none;html=1;rounded=0;entryX=0.207;entryY=0.999;entryDx=0;entryDy=0;entryPerimeter=0;" parent="WIyWlLk6GJQsqaUBKTNV-1" edge="1">
          <mxGeometry width="50" height="50" relative="1" as="geometry">
            <mxPoint x="-1280" y="540" as="sourcePoint" />
            <mxPoint x="-1280" y="415.9999999999999" as="targetPoint" />
          </mxGeometry>
        </mxCell>
        <mxCell id="WuP1_2tCb798RYxcEVrB-110" value="is created by" style="edgeLabel;html=1;align=center;verticalAlign=middle;resizable=0;points=[];" parent="XoDTWIKJpNxpfKzpVEM2-289" connectable="0" vertex="1">
          <mxGeometry x="0.4792" relative="1" as="geometry">
            <mxPoint x="-40" y="-16" as="offset" />
          </mxGeometry>
        </mxCell>
        <mxCell id="XoDTWIKJpNxpfKzpVEM2-292" value="" style="endArrow=none;html=1;rounded=0;" parent="WIyWlLk6GJQsqaUBKTNV-1" edge="1">
          <mxGeometry width="50" height="50" relative="1" as="geometry">
            <mxPoint x="-1860" y="300" as="sourcePoint" />
            <mxPoint x="-1290" y="300" as="targetPoint" />
          </mxGeometry>
        </mxCell>
        <mxCell id="XoDTWIKJpNxpfKzpVEM2-293" value="" style="endArrow=none;html=1;rounded=0;endFill=0;" parent="WIyWlLk6GJQsqaUBKTNV-1" target="XoDTWIKJpNxpfKzpVEM2-91" edge="1">
          <mxGeometry width="50" height="50" relative="1" as="geometry">
            <mxPoint x="-1435" y="300" as="sourcePoint" />
            <mxPoint x="-1374" y="250" as="targetPoint" />
          </mxGeometry>
        </mxCell>
        <mxCell id="XoDTWIKJpNxpfKzpVEM2-294" value="" style="endArrow=none;html=1;rounded=0;entryX=0.5;entryY=0;entryDx=0;entryDy=0;endFill=0;" parent="WIyWlLk6GJQsqaUBKTNV-1" target="XoDTWIKJpNxpfKzpVEM2-32" edge="1">
          <mxGeometry width="50" height="50" relative="1" as="geometry">
            <mxPoint x="-1290" y="300" as="sourcePoint" />
            <mxPoint x="-1240" y="250" as="targetPoint" />
          </mxGeometry>
        </mxCell>
        <mxCell id="XoDTWIKJpNxpfKzpVEM2-295" value="" style="endArrow=block;html=1;rounded=0;endFill=0;endSize=10;" parent="WIyWlLk6GJQsqaUBKTNV-1" edge="1">
          <mxGeometry width="50" height="50" relative="1" as="geometry">
            <mxPoint x="-1650" y="300" as="sourcePoint" />
            <mxPoint x="-1650" y="250" as="targetPoint" />
          </mxGeometry>
        </mxCell>
        <mxCell id="XoDTWIKJpNxpfKzpVEM2-296" value="" style="endArrow=none;html=1;rounded=0;endFill=0;" parent="WIyWlLk6GJQsqaUBKTNV-1" target="XoDTWIKJpNxpfKzpVEM2-114" edge="1">
          <mxGeometry width="50" height="50" relative="1" as="geometry">
            <mxPoint x="-1572" y="300" as="sourcePoint" />
            <mxPoint x="-1520" y="250" as="targetPoint" />
          </mxGeometry>
        </mxCell>
        <mxCell id="XoDTWIKJpNxpfKzpVEM2-297" value="" style="endArrow=none;html=1;rounded=0;entryX=0.463;entryY=0.003;entryDx=0;entryDy=0;entryPerimeter=0;endFill=0;" parent="WIyWlLk6GJQsqaUBKTNV-1" target="XoDTWIKJpNxpfKzpVEM2-137" edge="1">
          <mxGeometry width="50" height="50" relative="1" as="geometry">
            <mxPoint x="-1726" y="300" as="sourcePoint" />
            <mxPoint x="-1680" y="250" as="targetPoint" />
          </mxGeometry>
        </mxCell>
        <mxCell id="XoDTWIKJpNxpfKzpVEM2-298" value="" style="endArrow=none;html=1;rounded=0;endFill=0;entryX=0.647;entryY=-0.029;entryDx=0;entryDy=0;entryPerimeter=0;" parent="WIyWlLk6GJQsqaUBKTNV-1" target="XoDTWIKJpNxpfKzpVEM2-160" edge="1">
          <mxGeometry width="50" height="50" relative="1" as="geometry">
            <mxPoint x="-1860" y="300" as="sourcePoint" />
            <mxPoint x="-1860" y="350" as="targetPoint" />
          </mxGeometry>
        </mxCell>
        <mxCell id="XoDTWIKJpNxpfKzpVEM2-299" value="" style="endArrow=none;html=1;rounded=0;" parent="WIyWlLk6GJQsqaUBKTNV-1" edge="1">
          <mxGeometry width="50" height="50" relative="1" as="geometry">
            <mxPoint x="-1130" y="760" as="sourcePoint" />
            <mxPoint x="-770" y="760" as="targetPoint" />
          </mxGeometry>
        </mxCell>
        <mxCell id="XoDTWIKJpNxpfKzpVEM2-300" value="" style="endArrow=none;html=1;rounded=0;" parent="WIyWlLk6GJQsqaUBKTNV-1" source="XoDTWIKJpNxpfKzpVEM2-217" edge="1">
          <mxGeometry width="50" height="50" relative="1" as="geometry">
            <mxPoint x="-770.1800000000001" y="840" as="sourcePoint" />
            <mxPoint x="-770.59" y="760" as="targetPoint" />
          </mxGeometry>
        </mxCell>
        <mxCell id="WuP1_2tCb798RYxcEVrB-98" value="" style="endArrow=diamondThin;endFill=0;endSize=24;html=1;rounded=0;" parent="WIyWlLk6GJQsqaUBKTNV-1" source="XoDTWIKJpNxpfKzpVEM2-190" target="WuP1_2tCb798RYxcEVrB-29" edge="1">
          <mxGeometry width="160" relative="1" as="geometry">
            <mxPoint x="-1350" y="640" as="sourcePoint" />
            <mxPoint x="-1190" y="640" as="targetPoint" />
          </mxGeometry>
        </mxCell>
        <mxCell id="WuP1_2tCb798RYxcEVrB-101" value="[0, n]" style="edgeLabel;html=1;align=center;verticalAlign=middle;resizable=0;points=[];" parent="WuP1_2tCb798RYxcEVrB-98" vertex="1" connectable="0">
          <mxGeometry x="0.7429" relative="1" as="geometry">
            <mxPoint x="14" y="-23" as="offset" />
          </mxGeometry>
        </mxCell>
        <mxCell id="WuP1_2tCb798RYxcEVrB-102" value="[1, n]" style="edgeLabel;html=1;align=center;verticalAlign=middle;resizable=0;points=[];" parent="WuP1_2tCb798RYxcEVrB-98" vertex="1" connectable="0">
          <mxGeometry x="-0.5161" y="-4" relative="1" as="geometry">
            <mxPoint x="-82" y="22" as="offset" />
          </mxGeometry>
        </mxCell>
        <mxCell id="WuP1_2tCb798RYxcEVrB-103" value="is made up of" style="edgeLabel;html=1;align=center;verticalAlign=middle;resizable=0;points=[];" parent="WuP1_2tCb798RYxcEVrB-98" vertex="1" connectable="0">
          <mxGeometry x="-0.3958" y="3" relative="1" as="geometry">
            <mxPoint x="-87" y="-11" as="offset" />
          </mxGeometry>
        </mxCell>
        <mxCell id="WuP1_2tCb798RYxcEVrB-104" value="forms" style="edgeLabel;html=1;align=center;verticalAlign=middle;resizable=0;points=[];" parent="WuP1_2tCb798RYxcEVrB-98" vertex="1" connectable="0">
          <mxGeometry x="0.656" y="2" relative="1" as="geometry">
            <mxPoint x="32" y="30" as="offset" />
          </mxGeometry>
        </mxCell>
        <mxCell id="gsAN7uwr8J4xt1GHJvYO-0" value="Utils" style="swimlane;fontStyle=0;childLayout=stackLayout;horizontal=1;startSize=26;fillColor=none;horizontalStack=0;resizeParent=1;resizeParentMax=0;resizeLast=0;collapsible=1;marginBottom=0;whiteSpace=wrap;html=1;" parent="WIyWlLk6GJQsqaUBKTNV-1" vertex="1">
          <mxGeometry x="-610" y="10" width="310" height="156" as="geometry" />
        </mxCell>
        <mxCell id="gsAN7uwr8J4xt1GHJvYO-1" value="+validateClientAge(age: int): boolean" style="text;strokeColor=none;fillColor=none;align=left;verticalAlign=top;spacingLeft=4;spacingRight=4;overflow=hidden;rotatable=0;points=[[0,0.5],[1,0.5]];portConstraint=eastwest;whiteSpace=wrap;html=1;" parent="gsAN7uwr8J4xt1GHJvYO-0" vertex="1">
          <mxGeometry y="26" width="310" height="26" as="geometry" />
        </mxCell>
        <mxCell id="gsAN7uwr8J4xt1GHJvYO-2" value="+ validateEmployeeAge(dob: Date): boolean" style="text;strokeColor=none;fillColor=none;align=left;verticalAlign=top;spacingLeft=4;spacingRight=4;overflow=hidden;rotatable=0;points=[[0,0.5],[1,0.5]];portConstraint=eastwest;whiteSpace=wrap;html=1;" parent="gsAN7uwr8J4xt1GHJvYO-0" vertex="1">
          <mxGeometry y="52" width="310" height="26" as="geometry" />
        </mxCell>
        <mxCell id="gsAN7uwr8J4xt1GHJvYO-3" value="+ validateEmailAddress(email: String): boolean" style="text;strokeColor=none;fillColor=none;align=left;verticalAlign=top;spacingLeft=4;spacingRight=4;overflow=hidden;rotatable=0;points=[[0,0.5],[1,0.5]];portConstraint=eastwest;whiteSpace=wrap;html=1;" parent="gsAN7uwr8J4xt1GHJvYO-0" vertex="1">
          <mxGeometry y="78" width="310" height="26" as="geometry" />
        </mxCell>
        <mxCell id="gsAN7uwr8J4xt1GHJvYO-4" value="+ validatePhoneNumber(number: String): boolean" style="text;strokeColor=none;fillColor=none;align=left;verticalAlign=top;spacingLeft=4;spacingRight=4;overflow=hidden;rotatable=0;points=[[0,0.5],[1,0.5]];portConstraint=eastwest;whiteSpace=wrap;html=1;" parent="gsAN7uwr8J4xt1GHJvYO-0" vertex="1">
          <mxGeometry y="104" width="310" height="26" as="geometry" />
        </mxCell>
        <mxCell id="gsAN7uwr8J4xt1GHJvYO-5" value="+ validateZipCode(zipCode: String): boolean" style="text;strokeColor=none;fillColor=none;align=left;verticalAlign=top;spacingLeft=4;spacingRight=4;overflow=hidden;rotatable=0;points=[[0,0.5],[1,0.5]];portConstraint=eastwest;whiteSpace=wrap;html=1;" parent="gsAN7uwr8J4xt1GHJvYO-0" vertex="1">
          <mxGeometry y="130" width="310" height="26" as="geometry" />
        </mxCell>
      </root>
    </mxGraphModel>
  </diagram>
</mxfile>
